<?xml version="1.0" encoding="UTF-8"?>
<!DOCTYPE svg PUBLIC "-//W3C//DTD SVG 1.1//EN" "http://www.w3.org/Graphics/SVG/1.1/DTD/svg11.dtd">
<svg xmlns="http://www.w3.org/2000/svg" version="1.1" width="512px" height="512px" style="shape-rendering:geometricPrecision; text-rendering:geometricPrecision; image-rendering:optimizeQuality; fill-rule:evenodd; clip-rule:evenodd" xmlns:xlink="http://www.w3.org/1999/xlink">
<g><path style="opacity:0.858" fill="#f09850" d="M 383.5,69.5 C 379.116,71.6849 375.116,74.3516 371.5,77.5C 371.5,76.1667 371.5,74.8333 371.5,73.5C 370.167,73.5 368.833,73.5 367.5,73.5C 367.5,72.5 367.5,71.5 367.5,70.5C 362.627,68.1786 357.794,65.512 353,62.5C 345.848,60.6846 339.348,57.5179 333.5,53C 329.766,51.1749 325.766,50.1749 321.5,50C 312.128,43.8437 301.794,40.5103 290.5,40C 289.833,39.3333 289.167,38.6667 288.5,38C 284.5,37.6667 280.5,37.3333 276.5,37C 275.672,36.0853 274.672,35.4186 273.5,35C 257.833,34.3333 242.167,34.3333 226.5,35C 214.287,37.4741 202.287,40.6407 190.5,44.5C 190.028,47.3579 191.028,49.3579 193.5,50.5C 192.167,50.5 190.833,50.5 189.5,50.5C 189.5,49.5 189.5,48.5 189.5,47.5C 186.482,47.6646 183.482,47.498 180.5,47C 175.734,46.0863 171.067,44.9196 166.5,43.5C 166.414,42.5041 166.748,41.6708 167.5,41C 171.017,39.4715 174.683,38.4715 178.5,38C 182.5,35.6667 186.5,33.3333 190.5,31C 197.619,29.0707 204.952,28.2374 212.5,28.5C 212.5,27.5 212.5,26.5 212.5,25.5C 225.154,24.7673 237.821,24.1006 250.5,23.5C 263.195,23.9347 275.862,24.7681 288.5,26C 288.957,26.414 289.291,26.914 289.5,27.5C 296.82,28.7756 304.153,29.9423 311.5,31C 316.038,33.6829 321.038,35.3495 326.5,36C 326.957,36.414 327.291,36.914 327.5,37.5C 333.593,39.3088 339.593,41.3088 345.5,43.5C 345.5,44.5 345.5,45.5 345.5,46.5C 348.833,47.1667 352.167,47.8333 355.5,48.5C 355.5,49.5 355.5,50.5 355.5,51.5C 358.833,52.1667 362.167,52.8333 365.5,53.5C 365.5,54.5 365.5,55.5 365.5,56.5C 369.477,57.7257 373.144,59.3924 376.5,61.5C 376.5,62.5 376.5,63.5 376.5,64.5C 378.929,64.8844 381.263,65.551 383.5,66.5C 383.5,67.5 383.5,68.5 383.5,69.5 Z"/></g>
<g><path style="opacity:1" fill="#fce676" d="M 371.5,77.5 C 366.246,81.2478 361.413,85.5811 357,90.5C 355.372,94.0651 353.038,97.0651 350,99.5C 348.717,105.477 351.217,108.477 357.5,108.5C 359.167,108.167 360.833,107.833 362.5,107.5C 369.117,103.54 375.117,98.8732 380.5,93.5C 382.826,92.8489 385.159,92.1822 387.5,91.5C 391.759,93.1944 395.426,95.5277 398.5,98.5C 403.656,105.844 409.489,112.844 416,119.5C 417.438,120.9 418.271,122.567 418.5,124.5C 419.5,124.5 420.5,124.5 421.5,124.5C 421.351,125.552 421.517,126.552 422,127.5C 425.014,132.131 428.181,136.631 431.5,141C 431.272,141.399 430.938,141.565 430.5,141.5C 410.319,140.891 390.319,141.724 370.5,144C 366.031,145.609 361.697,147.109 357.5,148.5C 341.87,153.709 328.87,162.709 318.5,175.5C 312.883,183.204 312.05,191.537 316,200.5C 316.671,201.252 317.504,201.586 318.5,201.5C 319.878,202.545 320.878,203.878 321.5,205.5C 322.806,206.467 323.473,207.801 323.5,209.5C 327.846,209.666 332.179,209.499 336.5,209C 341.357,205.788 346.691,203.454 352.5,202C 353.412,199.795 354.745,197.962 356.5,196.5C 359.665,197.036 362.331,196.203 364.5,194C 368.389,193.821 372.056,192.988 375.5,191.5C 387.833,191.5 400.167,191.5 412.5,191.5C 412.5,192.5 412.5,193.5 412.5,194.5C 419.692,194.256 426.692,194.923 433.5,196.5C 434.959,196.433 436.292,196.766 437.5,197.5C 437.842,198.338 438.508,198.672 439.5,198.5C 439.953,199.458 440.619,200.292 441.5,201C 443.382,201.198 445.048,201.698 446.5,202.5C 451.1,207.637 453.934,213.637 455,220.5C 455.667,221.167 456.333,221.833 457,222.5C 458.966,230.683 459.8,239.016 459.5,247.5C 456.833,247.5 454.167,247.5 451.5,247.5C 451.5,246.5 451.5,245.5 451.5,244.5C 437.646,238.814 423.313,237.981 408.5,242C 402.431,245.496 399.764,250.829 400.5,258C 400.258,265.362 403.591,270.195 410.5,272.5C 411.091,273.151 411.757,273.818 412.5,274.5C 421.147,275.665 429.814,275.832 438.5,275C 441.139,273.054 444.139,272.054 447.5,272C 449.747,270.723 451.747,269.223 453.5,267.5C 454.5,267.5 455.5,267.5 456.5,267.5C 452.731,284.738 446.731,301.072 438.5,316.5C 428.347,321.742 418.014,326.742 407.5,331.5C 406.713,332.242 406.047,333.075 405.5,334C 397.812,334.831 390.145,334.665 382.5,333.5C 381.68,331.889 380.346,331.222 378.5,331.5C 379.547,325.216 380.38,318.882 381,312.5C 382.977,308.983 383.811,305.149 383.5,301C 383.475,298.071 382.809,295.571 381.5,293.5C 380.833,293.5 380.5,293.167 380.5,292.5C 380.38,291.414 379.713,290.747 378.5,290.5C 376.865,291.046 375.199,291.38 373.5,291.5C 372.833,294.167 372.167,296.833 371.5,299.5C 370.5,299.5 369.5,299.5 368.5,299.5C 367.958,306.666 366.624,313.666 364.5,320.5C 363.08,323.261 362.413,326.261 362.5,329.5C 361.325,329.281 360.325,329.614 359.5,330.5C 354.114,342.992 344.781,348.492 331.5,347C 329.133,344.92 326.467,343.42 323.5,342.5C 323.279,340.336 322.279,338.67 320.5,337.5C 319.419,335.866 318.085,334.533 316.5,333.5C 316.5,327.833 316.5,322.167 316.5,316.5C 313.972,315.989 311.472,315.322 309,314.5C 307.93,314.528 307.097,314.861 306.5,315.5C 300.974,315.179 295.64,315.512 290.5,316.5C 288.011,319.879 285.844,323.545 284,327.5C 283.503,329.81 283.337,332.143 283.5,334.5C 281.821,334.285 280.821,334.952 280.5,336.5C 277.167,337.641 274.167,339.474 271.5,342C 266.448,343.033 261.781,344.866 257.5,347.5C 257.5,347.167 257.5,346.833 257.5,346.5C 257.957,334.732 257.457,323.065 256,311.5C 252.433,317.662 250.766,324.329 251,331.5C 250.184,332.823 249.017,333.489 247.5,333.5C 242.789,321.941 238.289,310.275 234,298.5C 232.214,295.92 230.714,293.253 229.5,290.5C 227.5,289.833 225.5,289.167 223.5,288.5C 223.715,286.821 223.048,285.821 221.5,285.5C 220.349,290.65 220.183,295.984 221,301.5C 222.777,306.138 223.944,310.805 224.5,315.5C 224.833,315.5 225.167,315.5 225.5,315.5C 225.335,319.182 225.501,322.848 226,326.5C 227.836,331.469 229.336,336.469 230.5,341.5C 224.354,340.703 218.354,339.203 212.5,337C 205.414,331.277 198.08,325.777 190.5,320.5C 189.147,319.476 188.48,318.143 188.5,316.5C 187.5,316.5 186.5,316.5 185.5,316.5C 185.167,313.5 183.5,311.833 180.5,311.5C 177.973,306.95 174.973,302.616 171.5,298.5C 171.167,296.833 170.833,295.167 170.5,293.5C 172.016,285.11 175.183,277.444 180,270.5C 180.667,266.833 180.667,263.167 180,259.5C 179.722,258.584 179.222,257.918 178.5,257.5C 177.015,253.768 175.348,250.101 173.5,246.5C 166.627,241.362 159.627,236.362 152.5,231.5C 146.519,228.175 140.519,224.842 134.5,221.5C 134.523,219.4 133.856,217.567 132.5,216C 134.791,212.803 137.791,210.47 141.5,209C 142.252,208.329 142.586,207.496 142.5,206.5C 144.674,206.25 146.341,205.25 147.5,203.5C 158.311,200.467 169.311,198.301 180.5,197C 195.614,196.003 210.614,196.503 225.5,198.5C 231.879,199.355 237.546,201.855 242.5,206C 244.134,206.494 245.801,206.66 247.5,206.5C 250.529,208.075 253.862,209.241 257.5,210C 264.088,211.008 270.421,210.342 276.5,208C 278.141,206.871 279.141,205.371 279.5,203.5C 280.653,201.364 281.986,199.364 283.5,197.5C 284.82,194.572 285.486,191.239 285.5,187.5C 285.167,184.167 284.833,180.833 284.5,177.5C 283.132,175.363 282.132,173.03 281.5,170.5C 280.097,168.43 278.43,166.763 276.5,165.5C 275.596,164.791 275.263,163.791 275.5,162.5C 273.42,161.956 271.42,161.122 269.5,160C 267.531,157.511 265.198,155.678 262.5,154.5C 261.525,152.807 260.192,151.307 258.5,150C 255.91,148.555 253.243,147.388 250.5,146.5C 250.5,145.5 250.5,144.5 250.5,143.5C 248.833,143.5 247.167,143.5 245.5,143.5C 245.5,142.5 245.5,141.5 245.5,140.5C 235.837,139.501 226.17,138.501 216.5,137.5C 198.259,136.666 180.259,137.999 162.5,141.5C 158.833,141.5 155.167,141.5 151.5,141.5C 148.857,137.102 147.524,132.269 147.5,127C 148.841,119.567 149.675,112.067 150,104.5C 153.786,94.4919 155.953,84.1586 156.5,73.5C 168.833,73.5 181.167,73.5 193.5,73.5C 198.148,76.7167 202.482,80.3834 206.5,84.5C 207.325,85.3857 208.325,85.719 209.5,85.5C 213.245,90.7513 217.578,95.5846 222.5,100C 231.026,103.646 237.359,101.479 241.5,93.5C 240.93,88.6109 238.763,84.6109 235,81.5C 234.517,80.552 234.351,79.552 234.5,78.5C 231.167,78.5 229.5,76.8333 229.5,73.5C 228.5,73.5 227.5,73.5 226.5,73.5C 226.719,72.325 226.386,71.325 225.5,70.5C 215.194,63.2833 204.527,56.6166 193.5,50.5C 191.028,49.3579 190.028,47.3579 190.5,44.5C 202.287,40.6407 214.287,37.4741 226.5,35C 242.167,34.3333 257.833,34.3333 273.5,35C 274.672,35.4186 275.672,36.0853 276.5,37C 280.5,37.3333 284.5,37.6667 288.5,38C 289.167,38.6667 289.833,39.3333 290.5,40C 301.794,40.5103 312.128,43.8437 321.5,50C 325.766,50.1749 329.766,51.1749 333.5,53C 339.348,57.5179 345.848,60.6846 353,62.5C 357.794,65.512 362.627,68.1786 367.5,70.5C 367.5,71.5 367.5,72.5 367.5,73.5C 368.833,73.5 370.167,73.5 371.5,73.5C 371.5,74.8333 371.5,76.1667 371.5,77.5 Z"/></g>
<g><path style="opacity:0.998" fill="#b64e15" d="M 166.5,43.5 C 171.067,44.9196 175.734,46.0863 180.5,47C 183.482,47.498 186.482,47.6646 189.5,47.5C 189.5,48.5 189.5,49.5 189.5,50.5C 190.833,50.5 192.167,50.5 193.5,50.5C 204.527,56.6166 215.194,63.2833 225.5,70.5C 226.386,71.325 226.719,72.325 226.5,73.5C 227.5,73.5 228.5,73.5 229.5,73.5C 229.5,76.8333 231.167,78.5 234.5,78.5C 234.351,79.552 234.517,80.552 235,81.5C 238.763,84.6109 240.93,88.6109 241.5,93.5C 237.359,101.479 231.026,103.646 222.5,100C 217.578,95.5846 213.245,90.7513 209.5,85.5C 208.325,85.719 207.325,85.3857 206.5,84.5C 202.482,80.3834 198.148,76.7167 193.5,73.5C 181.674,72.6693 169.674,72.1693 157.5,72C 153.136,70.914 148.803,69.7474 144.5,68.5C 144.985,63.2709 144.318,58.2709 142.5,53.5C 146.018,49.2237 150.684,46.8904 156.5,46.5C 156.5,45.5 156.5,44.5 156.5,43.5C 159.833,43.5 163.167,43.5 166.5,43.5 Z"/></g>
<g><path style="opacity:0.897" fill="#f09850" d="M 142.5,53.5 C 144.318,58.2709 144.985,63.2709 144.5,68.5C 141.821,68.6726 139.487,69.6726 137.5,71.5C 131.83,77.8469 125.497,83.5136 118.5,88.5C 116.808,90.3586 115.308,92.3586 114,94.5C 108.376,99.287 102.876,104.287 97.5,109.5C 96.7542,110.736 96.4208,112.07 96.5,113.5C 92.3363,113.772 90.503,116.106 91,120.5C 84.9275,125.738 79.7609,131.738 75.5,138.5C 74.675,139.386 73.675,139.719 72.5,139.5C 71.8333,143.167 71.1667,146.833 70.5,150.5C 69.5,150.5 68.5,150.5 67.5,150.5C 65.4746,159.888 62.3079,168.888 58,177.5C 56.3703,182.685 55.037,188.019 54,193.5C 53.5814,194.672 52.9147,195.672 52,196.5C 51.2155,205.921 49.8821,215.254 48,224.5C 47.3333,236.5 47.3333,248.5 48,260.5C 51.2086,273.019 53.5419,285.685 55,298.5C 57.4636,303.303 59.4636,308.303 61,313.5C 64.5551,317.072 66.2218,321.405 66,326.5C 71.1632,335.246 76.4965,343.913 82,352.5C 83.0086,354.025 83.5086,355.692 83.5,357.5C 84.5,357.5 85.5,357.5 86.5,357.5C 86.3505,358.552 86.5172,359.552 87,360.5C 88.5122,361.257 89.8455,362.257 91,363.5C 92.2779,367.164 94.1112,370.497 96.5,373.5C 99.856,376.843 103.189,380.176 106.5,383.5C 107.325,384.386 108.325,384.719 109.5,384.5C 109.383,386.484 110.05,388.15 111.5,389.5C 120.639,397.572 130.639,404.405 141.5,410C 142.337,411.011 142.67,412.178 142.5,413.5C 144.167,413.5 145.833,413.5 147.5,413.5C 147.586,414.496 147.252,415.329 146.5,416C 142.988,418.257 139.654,420.757 136.5,423.5C 134.677,424.747 132.677,425.414 130.5,425.5C 129.33,423.721 127.664,422.721 125.5,422.5C 125.5,421.5 125.5,420.5 125.5,419.5C 122.5,419.167 120.833,417.5 120.5,414.5C 117.5,414.167 115.833,412.5 115.5,409.5C 114.127,409.657 112.793,409.49 111.5,409C 106.016,403.85 100.516,398.684 95,393.5C 93.5619,392.1 92.7286,390.433 92.5,388.5C 89.5,388.167 87.8333,386.5 87.5,383.5C 86.5,383.5 85.5,383.5 84.5,383.5C 82.8333,380.167 81.1667,376.833 79.5,373.5C 78.5,373.5 77.5,373.5 76.5,373.5C 75.36,370.975 74.6933,368.308 74.5,365.5C 70.678,364.82 69.0114,362.487 69.5,358.5C 68.5,358.5 67.5,358.5 66.5,358.5C 65.36,355.975 64.6933,353.308 64.5,350.5C 63.5,350.5 62.5,350.5 61.5,350.5C 61.7852,348.712 61.4519,347.045 60.5,345.5C 57.711,340.1 54.8777,334.766 52,329.5C 51.5065,327.866 51.3398,326.199 51.5,324.5C 50.5,324.5 49.5,324.5 48.5,324.5C 47.6737,319.526 47.0071,314.526 46.5,309.5C 45.5,309.5 44.5,309.5 43.5,309.5C 41.4128,299.202 38.9128,288.869 36,278.5C 33.6063,261.29 32.9396,243.956 34,226.5C 35.3001,218.999 35.9667,211.332 36,203.5C 36.414,203.043 36.914,202.709 37.5,202.5C 38.1667,198.167 38.8333,193.833 39.5,189.5C 42.0735,184.181 43.5735,178.514 44,172.5C 45.8996,170.146 47.2329,167.48 48,164.5C 48.4955,162.527 48.6621,160.527 48.5,158.5C 49.5,158.5 50.5,158.5 51.5,158.5C 51.1924,156.076 51.5258,153.743 52.5,151.5C 55.5427,143.079 59.8761,135.412 65.5,128.5C 65.7423,124.907 67.409,122.241 70.5,120.5C 71.4519,118.955 71.7852,117.288 71.5,115.5C 72.5,115.5 73.5,115.5 74.5,115.5C 76.2965,111.248 78.6299,107.248 81.5,103.5C 82.325,102.614 83.325,102.281 84.5,102.5C 84.5,101.5 84.5,100.5 84.5,99.5C 87.5,99.1667 89.1667,97.5 89.5,94.5C 92.5,94.1667 94.1667,92.5 94.5,89.5C 97.5,89.1667 99.1667,87.5 99.5,84.5C 100.5,84.5 101.5,84.5 102.5,84.5C 102.833,81.5 104.5,79.8333 107.5,79.5C 107.5,78.5 107.5,77.5 107.5,76.5C 110.178,75.9992 112.178,74.4992 113.5,72C 115.868,71.1436 118.202,70.3103 120.5,69.5C 120.5,68.5 120.5,67.5 120.5,66.5C 123.308,66.3067 125.975,65.64 128.5,64.5C 128.5,63.5 128.5,62.5 128.5,61.5C 130.167,61.5 131.833,61.5 133.5,61.5C 133.5,60.5 133.5,59.5 133.5,58.5C 135.288,58.7852 136.955,58.4519 138.5,57.5C 139.849,56.0907 141.182,54.7574 142.5,53.5 Z"/></g>
<g><path style="opacity:0.999" fill="#fecc73" d="M 144.5,68.5 C 148.803,69.7474 153.136,70.914 157.5,72C 169.674,72.1693 181.674,72.6693 193.5,73.5C 181.167,73.5 168.833,73.5 156.5,73.5C 155.953,84.1586 153.786,94.4919 150,104.5C 149.675,112.067 148.841,119.567 147.5,127C 147.524,132.269 148.857,137.102 151.5,141.5C 151.631,142.376 151.298,143.043 150.5,143.5C 145.776,145.311 141.443,147.644 137.5,150.5C 133.769,151.849 130.102,153.349 126.5,155C 122.12,159.048 117.454,162.715 112.5,166C 106.505,171.448 102.505,177.948 100.5,185.5C 99.5,185.5 98.5,185.5 97.5,185.5C 97.3337,192.175 97.5004,198.842 98,205.5C 99.1145,207 99.9479,208.667 100.5,210.5C 101.325,211.386 102.325,211.719 103.5,211.5C 103.5,212.5 103.5,213.5 103.5,214.5C 105.167,214.5 106.833,214.5 108.5,214.5C 114.878,217.2 121.544,218.034 128.5,217C 132.308,212.344 136.975,208.844 142.5,206.5C 142.586,207.496 142.252,208.329 141.5,209C 137.791,210.47 134.791,212.803 132.5,216C 133.856,217.567 134.523,219.4 134.5,221.5C 140.519,224.842 146.519,228.175 152.5,231.5C 136.689,229.564 122.023,232.564 108.5,240.5C 98.8682,246.605 95.7015,255.272 99,266.5C 102.833,275 109,281.167 117.5,285C 123.58,286.521 129.58,288.354 135.5,290.5C 141.778,289.272 148.112,288.439 154.5,288C 158.423,285.207 162.756,283.207 167.5,282C 170.501,278.733 173.668,275.566 177,272.5C 179.798,267.808 180.298,262.808 178.5,257.5C 179.222,257.918 179.722,258.584 180,259.5C 180.667,263.167 180.667,266.833 180,270.5C 175.183,277.444 172.016,285.11 170.5,293.5C 170.833,295.167 171.167,296.833 171.5,298.5C 174.973,302.616 177.973,306.95 180.5,311.5C 183.5,311.833 185.167,313.5 185.5,316.5C 186.5,316.5 187.5,316.5 188.5,316.5C 188.48,318.143 189.147,319.476 190.5,320.5C 198.08,325.777 205.414,331.277 212.5,337C 218.354,339.203 224.354,340.703 230.5,341.5C 229.336,336.469 227.836,331.469 226,326.5C 225.501,322.848 225.335,319.182 225.5,315.5C 227.684,324.7 230.684,333.7 234.5,342.5C 238.109,345.454 241.442,348.62 244.5,352C 245.577,352.47 246.577,352.303 247.5,351.5C 249.055,356.722 252.389,358.389 257.5,356.5C 261.97,355.319 266.303,353.819 270.5,352C 272.81,351.503 275.143,351.337 277.5,351.5C 278.388,354.054 278.721,356.721 278.5,359.5C 282.723,359.661 286.723,358.994 290.5,357.5C 290.5,351.5 290.5,345.5 290.5,339.5C 291.492,339.672 292.158,339.338 292.5,338.5C 293.836,334.999 296.336,332.666 300,331.5C 301.31,332.13 302.144,333.13 302.5,334.5C 297.138,334.498 293.805,337.164 292.5,342.5C 291.507,347.12 291.173,351.786 291.5,356.5C 296.833,356.5 302.167,356.5 307.5,356.5C 307.5,350.833 307.5,345.167 307.5,339.5C 308.49,345.31 308.823,351.31 308.5,357.5C 311.572,357.817 314.572,357.484 317.5,356.5C 318.005,355.081 319.005,354.415 320.5,354.5C 320.833,354.5 321.167,354.5 321.5,354.5C 328.275,362.695 336.941,365.195 347.5,362C 349.339,360.868 351.339,360.035 353.5,359.5C 354.517,357.163 356.184,355.496 358.5,354.5C 359.386,353.675 359.719,352.675 359.5,351.5C 360.5,351.5 361.5,351.5 362.5,351.5C 362.746,348.53 364.412,347.197 367.5,347.5C 367.351,346.448 367.517,345.448 368,344.5C 371.511,340.14 374.511,335.473 377,330.5C 379.307,318.297 380.807,305.964 381.5,293.5C 382.809,295.571 383.475,298.071 383.5,301C 383.811,305.149 382.977,308.983 381,312.5C 380.38,318.882 379.547,325.216 378.5,331.5C 380.346,331.222 381.68,331.889 382.5,333.5C 390.145,334.665 397.812,334.831 405.5,334C 406.047,333.075 406.713,332.242 407.5,331.5C 418.014,326.742 428.347,321.742 438.5,316.5C 438.66,318.199 438.494,319.866 438,321.5C 432.085,333.665 425.918,345.665 419.5,357.5C 418.5,357.5 417.5,357.5 416.5,357.5C 416.008,362.47 413.508,366.137 409,368.5C 408.51,369.793 408.343,371.127 408.5,372.5C 406.857,372.48 405.524,373.147 404.5,374.5C 400.143,381.222 395.31,387.555 390,393.5C 389.329,392.748 388.496,392.414 387.5,392.5C 382.197,388.131 376.531,384.298 370.5,381C 368.866,380.506 367.199,380.34 365.5,380.5C 364.571,379.685 363.571,378.852 362.5,378C 320.5,377.333 278.5,377.333 236.5,378C 233.048,378.885 229.714,379.718 226.5,380.5C 225.25,380.577 224.417,381.244 224,382.5C 222.374,387.664 221.54,392.997 221.5,398.5C 209.151,399.004 196.818,399.837 184.5,401C 171.855,404.068 159.522,408.235 147.5,413.5C 145.833,413.5 144.167,413.5 142.5,413.5C 142.67,412.178 142.337,411.011 141.5,410C 130.639,404.405 120.639,397.572 111.5,389.5C 110.05,388.15 109.383,386.484 109.5,384.5C 108.325,384.719 107.325,384.386 106.5,383.5C 103.189,380.176 99.856,376.843 96.5,373.5C 94.1112,370.497 92.2779,367.164 91,363.5C 89.8455,362.257 88.5122,361.257 87,360.5C 86.5172,359.552 86.3505,358.552 86.5,357.5C 85.5,357.5 84.5,357.5 83.5,357.5C 83.5086,355.692 83.0086,354.025 82,352.5C 76.4965,343.913 71.1632,335.246 66,326.5C 66.2218,321.405 64.5551,317.072 61,313.5C 59.4636,308.303 57.4636,303.303 55,298.5C 53.5419,285.685 51.2086,273.019 48,260.5C 47.3333,248.5 47.3333,236.5 48,224.5C 49.8821,215.254 51.2155,205.921 52,196.5C 52.9147,195.672 53.5814,194.672 54,193.5C 55.037,188.019 56.3703,182.685 58,177.5C 62.3079,168.888 65.4746,159.888 67.5,150.5C 68.5,150.5 69.5,150.5 70.5,150.5C 71.1667,146.833 71.8333,143.167 72.5,139.5C 73.675,139.719 74.675,139.386 75.5,138.5C 79.7609,131.738 84.9275,125.738 91,120.5C 90.503,116.106 92.3363,113.772 96.5,113.5C 96.4208,112.07 96.7542,110.736 97.5,109.5C 102.876,104.287 108.376,99.287 114,94.5C 115.308,92.3586 116.808,90.3586 118.5,88.5C 125.497,83.5136 131.83,77.8469 137.5,71.5C 139.487,69.6726 141.821,68.6726 144.5,68.5 Z"/></g>
<g><path style="opacity:0.996" fill="#b64e15" d="M 401.5,86.5 C 393.573,86.5529 386.573,88.8862 380.5,93.5C 375.117,98.8732 369.117,103.54 362.5,107.5C 360.833,107.833 359.167,108.167 357.5,108.5C 351.217,108.477 348.717,105.477 350,99.5C 353.038,97.0651 355.372,94.0651 357,90.5C 361.413,85.5811 366.246,81.2478 371.5,77.5C 375.116,74.3516 379.116,71.6849 383.5,69.5C 385.5,69.5 387.5,69.5 389.5,69.5C 389.5,68.5 389.5,67.5 389.5,66.5C 397.833,66.5 406.167,66.5 414.5,66.5C 414.5,67.5 414.5,68.5 414.5,69.5C 428.925,69.7604 433.258,76.4271 427.5,89.5C 421.5,89.5 415.5,89.5 409.5,89.5C 409.5,88.5 409.5,87.5 409.5,86.5C 406.833,86.5 404.167,86.5 401.5,86.5 Z"/></g>
<g><path style="opacity:0.862" fill="#ef9850" d="M 401.5,86.5 C 404.239,87.5752 405.906,89.5752 406.5,92.5C 408.433,92.7286 410.1,93.5619 411.5,95C 415,98.5 418.5,102 422,105.5C 423.438,106.9 424.271,108.567 424.5,110.5C 425.5,110.5 426.5,110.5 427.5,110.5C 427.011,114.487 428.678,116.82 432.5,117.5C 432.215,119.288 432.548,120.955 433.5,122.5C 434.892,123.605 436.059,124.939 437,126.5C 439.005,133.268 441.838,139.601 445.5,145.5C 444.258,146.043 442.925,146.377 441.5,146.5C 439.223,145.522 436.89,144.855 434.5,144.5C 434.167,144.5 433.833,144.5 433.5,144.5C 433.179,142.952 432.179,142.285 430.5,142.5C 430.5,142.167 430.5,141.833 430.5,141.5C 430.938,141.565 431.272,141.399 431.5,141C 428.181,136.631 425.014,132.131 422,127.5C 421.517,126.552 421.351,125.552 421.5,124.5C 420.5,124.5 419.5,124.5 418.5,124.5C 418.271,122.567 417.438,120.9 416,119.5C 409.489,112.844 403.656,105.844 398.5,98.5C 395.426,95.5277 391.759,93.1944 387.5,91.5C 385.159,92.1822 382.826,92.8489 380.5,93.5C 386.573,88.8862 393.573,86.5529 401.5,86.5 Z"/></g>
<g><path style="opacity:0.979" fill="#36332e" d="M 216.5,137.5 C 217.552,139.256 219.219,139.923 221.5,139.5C 226.1,140.334 230.766,141.334 235.5,142.5C 239.305,143.835 243.305,144.668 247.5,145C 251.695,147.717 255.695,150.551 259.5,153.5C 258.596,154.209 258.263,155.209 258.5,156.5C 259.833,156.5 261.167,156.5 262.5,156.5C 262.795,158.735 262.461,160.735 261.5,162.5C 261.5,160.833 261.5,159.167 261.5,157.5C 259.801,157.66 258.134,157.494 256.5,157C 250.496,153.791 244.496,150.791 238.5,148C 233.022,147.337 227.689,146.17 222.5,144.5C 222.047,143.542 221.381,142.708 220.5,142C 203.364,140.804 186.364,141.804 169.5,145C 167.825,145.985 166.158,146.819 164.5,147.5C 163.5,147.5 162.5,147.5 161.5,147.5C 152.063,150.904 142.563,154.238 133,157.5C 130.219,160.778 127.053,163.445 123.5,165.5C 120.75,166.631 118.417,168.297 116.5,170.5C 106.04,177.807 102.54,187.807 106,200.5C 106.333,202.167 106.667,203.833 107,205.5C 107.671,206.252 108.504,206.586 109.5,206.5C 110.167,208.5 110.833,210.5 111.5,212.5C 116.33,212.613 120.997,211.78 125.5,210C 130.802,206.506 136.468,203.673 142.5,201.5C 142.5,200.5 142.5,199.5 142.5,198.5C 144.099,198.768 145.432,198.434 146.5,197.5C 149.747,196.748 153.081,196.248 156.5,196C 157.167,195.333 157.833,194.667 158.5,194C 178.798,191.655 199.131,191.155 219.5,192.5C 220.167,192.5 220.833,192.5 221.5,192.5C 228.187,193.061 234.854,194.061 241.5,195.5C 238.127,187.881 238.96,180.881 244,174.5C 244.49,173.207 244.657,171.873 244.5,170.5C 246.689,168.1 249.356,166.433 252.5,165.5C 251.952,167.532 250.619,168.532 248.5,168.5C 248.5,170.167 248.5,171.833 248.5,173.5C 247.5,173.5 246.5,173.5 245.5,173.5C 244.52,177.962 242.854,182.129 240.5,186C 242.93,189.062 243.93,192.562 243.5,196.5C 238.138,196.665 232.971,195.998 228,194.5C 226.167,194.667 224.333,194.833 222.5,195C 223.942,195.377 224.942,196.21 225.5,197.5C 203.935,194.845 182.268,195.012 160.5,198C 155.926,199.619 151.593,201.452 147.5,203.5C 146.341,205.25 144.674,206.25 142.5,206.5C 136.975,208.844 132.308,212.344 128.5,217C 121.544,218.034 114.878,217.2 108.5,214.5C 106.143,212.876 103.976,210.876 102,208.5C 99.4562,200.973 98.9562,193.307 100.5,185.5C 102.505,177.948 106.505,171.448 112.5,166C 117.454,162.715 122.12,159.048 126.5,155C 130.102,153.349 133.769,151.849 137.5,150.5C 145.443,146.518 153.777,143.518 162.5,141.5C 180.259,137.999 198.259,136.666 216.5,137.5 Z"/></g>
<g><path style="opacity:0.78" fill="#70683f" d="M 221.5,139.5 C 224.85,139.335 228.183,139.502 231.5,140C 233.066,140.608 234.4,141.442 235.5,142.5C 230.766,141.334 226.1,140.334 221.5,139.5 Z"/></g>
<g><path style="opacity:0.992" fill="#caba62" d="M 216.5,137.5 C 226.17,138.501 235.837,139.501 245.5,140.5C 245.5,141.5 245.5,142.5 245.5,143.5C 247.167,143.5 248.833,143.5 250.5,143.5C 250.5,144.5 250.5,145.5 250.5,146.5C 253.243,147.388 255.91,148.555 258.5,150C 260.192,151.307 261.525,152.807 262.5,154.5C 261.609,153.89 260.609,153.557 259.5,153.5C 255.695,150.551 251.695,147.717 247.5,145C 243.305,144.668 239.305,143.835 235.5,142.5C 234.4,141.442 233.066,140.608 231.5,140C 228.183,139.502 224.85,139.335 221.5,139.5C 219.219,139.923 217.552,139.256 216.5,137.5 Z"/></g>
<g><path style="opacity:1" fill="#fcf9f9" d="M 222.5,144.5 C 227.689,146.17 233.022,147.337 238.5,148C 244.496,150.791 250.496,153.791 256.5,157C 258.134,157.494 259.801,157.66 261.5,157.5C 261.5,159.167 261.5,160.833 261.5,162.5C 257.845,161.925 254.845,162.925 252.5,165.5C 249.356,166.433 246.689,168.1 244.5,170.5C 243.85,170.804 243.183,171.137 242.5,171.5C 239.093,178.021 237.759,185.021 238.5,192.5C 232.833,192.5 227.167,192.5 221.5,192.5C 220.833,192.5 220.167,192.5 219.5,192.5C 217.369,191.686 215.036,191.186 212.5,191C 199.5,190.333 186.5,190.333 173.5,191C 167.673,192.289 161.673,192.956 155.5,193C 151.818,193.507 148.818,195.007 146.5,197.5C 145.432,198.434 144.099,198.768 142.5,198.5C 142.5,199.5 142.5,200.5 142.5,201.5C 136.468,203.673 130.802,206.506 125.5,210C 120.997,211.78 116.33,212.613 111.5,212.5C 110.833,210.5 110.167,208.5 109.5,206.5C 106.619,197.119 106.952,187.785 110.5,178.5C 111.517,176.163 113.184,174.496 115.5,173.5C 116.386,172.675 116.719,171.675 116.5,170.5C 118.417,168.297 120.75,166.631 123.5,165.5C 125.921,164.109 128.588,163.275 131.5,163C 132.255,160.867 133.588,159.2 135.5,158C 141.721,155.824 148.055,154.157 154.5,153C 156.995,151.309 159.329,149.476 161.5,147.5C 162.5,147.5 163.5,147.5 164.5,147.5C 173.415,146.091 182.415,144.591 191.5,143C 201.932,142.069 212.266,142.569 222.5,144.5 Z"/></g>
<g><path style="opacity:0.937" fill="#818080" d="M 222.5,144.5 C 212.266,142.569 201.932,142.069 191.5,143C 182.415,144.591 173.415,146.091 164.5,147.5C 166.158,146.819 167.825,145.985 169.5,145C 186.364,141.804 203.364,140.804 220.5,142C 221.381,142.708 222.047,143.542 222.5,144.5 Z"/></g>
<g><path style="opacity:0.941" fill="#c6b661" d="M 430.5,141.5 C 430.5,141.833 430.5,142.167 430.5,142.5C 418.162,142.333 405.829,142.5 393.5,143C 390.964,143.186 388.631,143.686 386.5,144.5C 382.818,144.335 379.152,144.501 375.5,145C 369.632,146.886 363.632,148.053 357.5,148.5C 361.697,147.109 366.031,145.609 370.5,144C 390.319,141.724 410.319,140.891 430.5,141.5 Z"/></g>
<g><path style="opacity:0.812" fill="#5f5838" d="M 430.5,142.5 C 432.179,142.285 433.179,142.952 433.5,144.5C 417.833,144.5 402.167,144.5 386.5,144.5C 388.631,143.686 390.964,143.186 393.5,143C 405.829,142.5 418.162,142.333 430.5,142.5 Z"/></g>
<g><path style="opacity:0.914" fill="#917d4a" d="M 151.5,141.5 C 155.167,141.5 158.833,141.5 162.5,141.5C 153.777,143.518 145.443,146.518 137.5,150.5C 141.443,147.644 145.776,145.311 150.5,143.5C 151.298,143.043 151.631,142.376 151.5,141.5 Z"/></g>
<g><path style="opacity:0.855" fill="#8f6138" d="M 434.5,144.5 C 436.89,144.855 439.223,145.522 441.5,146.5C 442.925,146.377 444.258,146.043 445.5,145.5C 445.5,146.5 445.5,147.5 445.5,148.5C 441.175,148.651 437.509,147.318 434.5,144.5 Z"/></g>
<g><path style="opacity:0.999" fill="#fbf8f8" d="M 430.5,150.5 C 436.901,151.927 442.901,154.26 448.5,157.5C 448.36,159.124 449.027,160.29 450.5,161C 448.105,163.69 445.105,165.357 441.5,166C 439.963,167.11 439.297,168.61 439.5,170.5C 436.514,171.808 434.848,174.142 434.5,177.5C 433.215,180.589 432.549,183.922 432.5,187.5C 420.273,186.037 407.94,185.37 395.5,185.5C 387.47,185.502 379.803,186.169 372.5,187.5C 365.499,188.713 358.499,190.38 351.5,192.5C 346.958,194.379 342.958,197.046 339.5,200.5C 333.941,203.058 328.274,203.058 322.5,200.5C 321.237,198.971 320.237,197.305 319.5,195.5C 319.336,192.813 319.503,190.146 320,187.5C 322.115,183.689 323.615,179.689 324.5,175.5C 329.183,170.818 334.183,166.485 339.5,162.5C 343.595,160.46 347.928,158.96 352.5,158C 353.731,156.595 355.064,155.429 356.5,154.5C 361.188,153.381 365.854,152.048 370.5,150.5C 382.892,150.532 395.226,149.865 407.5,148.5C 415.206,148.931 422.873,149.598 430.5,150.5 Z"/></g>
<g><path style="opacity:0.909" fill="#202020" d="M 445.5,148.5 C 447.833,148.5 450.167,148.5 452.5,148.5C 452.5,149.5 452.5,150.5 452.5,151.5C 456.358,153.576 460.025,155.909 463.5,158.5C 466.897,162.944 470.063,167.611 473,172.5C 473.5,179.826 473.666,187.159 473.5,194.5C 470.833,196.167 468.167,197.833 465.5,199.5C 465.715,201.179 465.048,202.179 463.5,202.5C 463.389,201.883 463.056,201.383 462.5,201C 455.833,200.667 449.167,200.333 442.5,200C 441.756,198.961 440.756,198.461 439.5,198.5C 438.508,198.672 437.842,198.338 437.5,197.5C 437.53,196.503 437.03,195.836 436,195.5C 431.124,193.669 426.291,191.836 421.5,190C 425.345,189.169 429.012,189.669 432.5,191.5C 433.442,191.392 434.275,191.059 435,190.5C 435.333,186.5 435.667,182.5 436,178.5C 437.445,175.945 438.611,173.278 439.5,170.5C 439.297,168.61 439.963,167.11 441.5,166C 445.105,165.357 448.105,163.69 450.5,161C 449.027,160.29 448.36,159.124 448.5,157.5C 448.196,156.85 447.863,156.183 447.5,155.5C 443.898,154.494 440.565,153.161 437.5,151.5C 437.5,150.5 437.5,149.5 437.5,148.5C 439.675,148.682 441.675,149.349 443.5,150.5C 444.713,150.253 445.38,149.586 445.5,148.5 Z"/></g>
<g><path style="opacity:0.967" fill="#bbb9b9" d="M 161.5,147.5 C 159.329,149.476 156.995,151.309 154.5,153C 148.055,154.157 141.721,155.824 135.5,158C 133.588,159.2 132.255,160.867 131.5,163C 128.588,163.275 125.921,164.109 123.5,165.5C 127.053,163.445 130.219,160.778 133,157.5C 142.563,154.238 152.063,150.904 161.5,147.5 Z"/></g>
<g><path style="opacity:0.957" fill="#aeacac" d="M 356.5,154.5 C 355.064,155.429 353.731,156.595 352.5,158C 347.928,158.96 343.595,160.46 339.5,162.5C 339.953,161.542 340.619,160.708 341.5,160C 345.009,158.536 348.342,156.869 351.5,155C 353.134,154.506 354.801,154.34 356.5,154.5 Z"/></g>
<g><path style="opacity:1" fill="#212120" d="M 259.5,153.5 C 260.609,153.557 261.609,153.89 262.5,154.5C 265.198,155.678 267.531,157.511 269.5,160C 271.42,161.122 273.42,161.956 275.5,162.5C 275.263,163.791 275.596,164.791 276.5,165.5C 276.12,168.792 277.453,171.125 280.5,172.5C 284.541,180.407 285.541,188.741 283.5,197.5C 281.986,199.364 280.653,201.364 279.5,203.5C 278.038,204.458 276.705,205.624 275.5,207C 266.119,207.78 256.786,207.613 247.5,206.5C 245.801,206.66 244.134,206.494 242.5,206C 237.546,201.855 231.879,199.355 225.5,198.5C 225.5,198.167 225.5,197.833 225.5,197.5C 224.942,196.21 223.942,195.377 222.5,195C 224.333,194.833 226.167,194.667 228,194.5C 232.971,195.998 238.138,196.665 243.5,196.5C 243.93,192.562 242.93,189.062 240.5,186C 242.854,182.129 244.52,177.962 245.5,173.5C 246.5,173.5 247.5,173.5 248.5,173.5C 248.5,171.833 248.5,170.167 248.5,168.5C 250.619,168.532 251.952,167.532 252.5,165.5C 254.845,162.925 257.845,161.925 261.5,162.5C 262.461,160.735 262.795,158.735 262.5,156.5C 261.167,156.5 259.833,156.5 258.5,156.5C 258.263,155.209 258.596,154.209 259.5,153.5 Z"/></g>
<g><path style="opacity:0.957" fill="#544f34" d="M 276.5,165.5 C 278.43,166.763 280.097,168.43 281.5,170.5C 282.132,173.03 283.132,175.363 284.5,177.5C 284.833,180.833 285.167,184.167 285.5,187.5C 285.486,191.239 284.82,194.572 283.5,197.5C 285.541,188.741 284.541,180.407 280.5,172.5C 277.453,171.125 276.12,168.792 276.5,165.5 Z"/></g>
<g><path style="opacity:0.98" fill="#c0bebe" d="M 116.5,170.5 C 116.719,171.675 116.386,172.675 115.5,173.5C 113.184,174.496 111.517,176.163 110.5,178.5C 106.952,187.785 106.619,197.119 109.5,206.5C 108.504,206.586 107.671,206.252 107,205.5C 106.667,203.833 106.333,202.167 106,200.5C 102.54,187.807 106.04,177.807 116.5,170.5 Z"/></g>
<g><path style="opacity:0.871" fill="#7a7979" d="M 219.5,192.5 C 199.131,191.155 178.798,191.655 158.5,194C 157.833,194.667 157.167,195.333 156.5,196C 153.081,196.248 149.747,196.748 146.5,197.5C 148.818,195.007 151.818,193.507 155.5,193C 161.673,192.956 167.673,192.289 173.5,191C 186.5,190.333 199.5,190.333 212.5,191C 215.036,191.186 217.369,191.686 219.5,192.5 Z"/></g>
<g><path style="opacity:0.929" fill="#b3b1b1" d="M 244.5,170.5 C 244.657,171.873 244.49,173.207 244,174.5C 238.96,180.881 238.127,187.881 241.5,195.5C 234.854,194.061 228.187,193.061 221.5,192.5C 227.167,192.5 232.833,192.5 238.5,192.5C 237.759,185.021 239.093,178.021 242.5,171.5C 243.183,171.137 243.85,170.804 244.5,170.5 Z"/></g>
<g><path style="opacity:0.902" fill="#a99c55" d="M 318.5,175.5 C 316.982,179.573 315.648,183.74 314.5,188C 315.788,192.532 317.121,197.032 318.5,201.5C 317.504,201.586 316.671,201.252 316,200.5C 312.05,191.537 312.883,183.204 318.5,175.5 Z"/></g>
<g><path style="opacity:0.906" fill="#aa9d56" d="M 225.5,197.5 C 225.5,197.833 225.5,198.167 225.5,198.5C 210.614,196.503 195.614,196.003 180.5,197C 169.311,198.301 158.311,200.467 147.5,203.5C 151.593,201.452 155.926,199.619 160.5,198C 182.268,195.012 203.935,194.845 225.5,197.5 Z"/></g>
<g><path style="opacity:0.727" fill="#8d613a" d="M 439.5,198.5 C 440.756,198.461 441.756,198.961 442.5,200C 449.167,200.333 455.833,200.667 462.5,201C 463.056,201.383 463.389,201.883 463.5,202.5C 457.833,202.5 452.167,202.5 446.5,202.5C 445.048,201.698 443.382,201.198 441.5,201C 440.619,200.292 439.953,199.458 439.5,198.5 Z"/></g>
<g><path style="opacity:0.884" fill="#3d3b34" d="M 386.5,144.5 C 402.167,144.5 417.833,144.5 433.5,144.5C 433.833,144.5 434.167,144.5 434.5,144.5C 437.509,147.318 441.175,148.651 445.5,148.5C 445.38,149.586 444.713,150.253 443.5,150.5C 441.675,149.349 439.675,148.682 437.5,148.5C 437.5,149.5 437.5,150.5 437.5,151.5C 440.565,153.161 443.898,154.494 447.5,155.5C 447.863,156.183 448.196,156.85 448.5,157.5C 442.901,154.26 436.901,151.927 430.5,150.5C 429.282,149.839 427.949,149.172 426.5,148.5C 411.178,147.334 395.844,147.167 380.5,148C 376.962,148.535 373.628,149.368 370.5,150.5C 365.854,152.048 361.188,153.381 356.5,154.5C 354.801,154.34 353.134,154.506 351.5,155C 348.342,156.869 345.009,158.536 341.5,160C 340.619,160.708 339.953,161.542 339.5,162.5C 334.183,166.485 329.183,170.818 324.5,175.5C 322.86,178.149 321.193,180.816 319.5,183.5C 318.191,187.649 318.191,191.649 319.5,195.5C 320.237,197.305 321.237,198.971 322.5,200.5C 328.274,203.058 333.941,203.058 339.5,200.5C 344.539,199.319 348.539,196.652 351.5,192.5C 358.499,190.38 365.499,188.713 372.5,187.5C 379.287,186.87 386.12,186.537 393,186.5C 406.678,187.902 420.511,188.569 434.5,188.5C 434.5,184.833 434.5,181.167 434.5,177.5C 434.848,174.142 436.514,171.808 439.5,170.5C 438.611,173.278 437.445,175.945 436,178.5C 435.667,182.5 435.333,186.5 435,190.5C 434.275,191.059 433.442,191.392 432.5,191.5C 429.012,189.669 425.345,189.169 421.5,190C 426.291,191.836 431.124,193.669 436,195.5C 437.03,195.836 437.53,196.503 437.5,197.5C 436.292,196.766 434.959,196.433 433.5,196.5C 431.981,195.59 430.315,194.757 428.5,194C 422.734,193.129 417.068,191.962 411.5,190.5C 406.42,188.985 401.086,188.318 395.5,188.5C 387.815,188.724 380.149,189.224 372.5,190C 372.043,190.414 371.709,190.914 371.5,191.5C 365.751,191.534 360.751,193.2 356.5,196.5C 350.415,198.041 345.082,200.874 340.5,205C 337.145,205.729 333.812,206.562 330.5,207.5C 327.494,206.821 324.494,206.154 321.5,205.5C 320.878,203.878 319.878,202.545 318.5,201.5C 317.121,197.032 315.788,192.532 314.5,188C 315.648,183.74 316.982,179.573 318.5,175.5C 328.87,162.709 341.87,153.709 357.5,148.5C 363.632,148.053 369.632,146.886 375.5,145C 379.152,144.501 382.818,144.335 386.5,144.5 Z"/></g>
<g><path style="opacity:0.82" fill="#959393" d="M 351.5,192.5 C 348.539,196.652 344.539,199.319 339.5,200.5C 342.958,197.046 346.958,194.379 351.5,192.5 Z"/></g>
<g><path style="opacity:0.921" fill="#cdbc63" d="M 411.5,190.5 C 417.068,191.962 422.734,193.129 428.5,194C 430.315,194.757 431.981,195.59 433.5,196.5C 426.692,194.923 419.692,194.256 412.5,194.5C 412.5,193.5 412.5,192.5 412.5,191.5C 400.167,191.5 387.833,191.5 375.5,191.5C 387.301,189.256 399.301,188.922 411.5,190.5 Z"/></g>
<g><path style="opacity:0.808" fill="#867c47" d="M 411.5,190.5 C 399.301,188.922 387.301,189.256 375.5,191.5C 372.056,192.988 368.389,193.821 364.5,194C 362.331,196.203 359.665,197.036 356.5,196.5C 360.751,193.2 365.751,191.534 371.5,191.5C 371.709,190.914 372.043,190.414 372.5,190C 380.149,189.224 387.815,188.724 395.5,188.5C 401.086,188.318 406.42,188.985 411.5,190.5 Z"/></g>
<g><path style="opacity:0.988" fill="#7e7d7d" d="M 434.5,177.5 C 434.5,181.167 434.5,184.833 434.5,188.5C 420.511,188.569 406.678,187.902 393,186.5C 386.12,186.537 379.287,186.87 372.5,187.5C 379.803,186.169 387.47,185.502 395.5,185.5C 407.94,185.37 420.273,186.037 432.5,187.5C 432.549,183.922 433.215,180.589 434.5,177.5 Z"/></g>
<g><path style="opacity:0.969" fill="#b7b5b5" d="M 324.5,175.5 C 323.615,179.689 322.115,183.689 320,187.5C 319.503,190.146 319.336,192.813 319.5,195.5C 318.191,191.649 318.191,187.649 319.5,183.5C 321.193,180.816 322.86,178.149 324.5,175.5 Z"/></g>
<g><path style="opacity:0.898" fill="#c5c3c3" d="M 430.5,150.5 C 422.873,149.598 415.206,148.931 407.5,148.5C 395.226,149.865 382.892,150.532 370.5,150.5C 373.628,149.368 376.962,148.535 380.5,148C 395.844,147.167 411.178,147.334 426.5,148.5C 427.949,149.172 429.282,149.839 430.5,150.5 Z"/></g>
<g><path style="opacity:0.976" fill="#d0a962" d="M 100.5,185.5 C 98.9562,193.307 99.4562,200.973 102,208.5C 103.976,210.876 106.143,212.876 108.5,214.5C 106.833,214.5 105.167,214.5 103.5,214.5C 103.5,213.5 103.5,212.5 103.5,211.5C 102.325,211.719 101.325,211.386 100.5,210.5C 99.9479,208.667 99.1145,207 98,205.5C 97.5004,198.842 97.3337,192.175 97.5,185.5C 98.5,185.5 99.5,185.5 100.5,185.5 Z"/></g>
<g><path style="opacity:0.919" fill="#f09850" d="M 446.5,202.5 C 452.167,202.5 457.833,202.5 463.5,202.5C 464.982,208.327 465.982,214.327 466.5,220.5C 467.086,220.709 467.586,221.043 468,221.5C 468.5,237.163 468.667,252.83 468.5,268.5C 467.5,268.5 466.5,268.5 465.5,268.5C 465.626,277.906 464.959,287.239 463.5,296.5C 462.5,296.5 461.5,296.5 460.5,296.5C 460.09,305.335 457.757,313.668 453.5,321.5C 452.188,325.111 451.188,328.777 450.5,332.5C 449.5,332.5 448.5,332.5 447.5,332.5C 446.833,335.833 446.167,339.167 445.5,342.5C 444.5,342.5 443.5,342.5 442.5,342.5C 442.785,344.288 442.452,345.955 441.5,347.5C 437.976,352.611 434.976,357.944 432.5,363.5C 431.5,363.5 430.5,363.5 429.5,363.5C 429.785,365.288 429.452,366.955 428.5,368.5C 423.993,371.998 420.659,376.331 418.5,381.5C 417.476,382.853 416.143,383.52 414.5,383.5C 414.719,384.675 414.386,385.675 413.5,386.5C 411.371,388.656 409.038,390.323 406.5,391.5C 406.167,394.5 404.5,396.167 401.5,396.5C 401.719,397.675 401.386,398.675 400.5,399.5C 398.623,400.803 396.957,402.303 395.5,404C 393.339,404.585 391.339,405.418 389.5,406.5C 388.784,401.936 388.117,397.269 387.5,392.5C 388.496,392.414 389.329,392.748 390,393.5C 395.31,387.555 400.143,381.222 404.5,374.5C 405.524,373.147 406.857,372.48 408.5,372.5C 408.343,371.127 408.51,369.793 409,368.5C 413.508,366.137 416.008,362.47 416.5,357.5C 417.5,357.5 418.5,357.5 419.5,357.5C 425.918,345.665 432.085,333.665 438,321.5C 438.494,319.866 438.66,318.199 438.5,316.5C 446.731,301.072 452.731,284.738 456.5,267.5C 455.5,267.5 454.5,267.5 453.5,267.5C 450.262,268.633 446.929,269.467 443.5,270C 437.852,273.912 431.518,275.412 424.5,274.5C 419.702,274.309 415.035,273.643 410.5,272.5C 403.591,270.195 400.258,265.362 400.5,258C 399.764,250.829 402.431,245.496 408.5,242C 423.313,237.981 437.646,238.814 451.5,244.5C 451.5,245.5 451.5,246.5 451.5,247.5C 454.167,247.5 456.833,247.5 459.5,247.5C 459.8,239.016 458.966,230.683 457,222.5C 456.333,221.833 455.667,221.167 455,220.5C 453.934,213.637 451.1,207.637 446.5,202.5 Z"/></g>
<g><path style="opacity:0.858" fill="#43402d" d="M 279.5,203.5 C 279.141,205.371 278.141,206.871 276.5,208C 270.421,210.342 264.088,211.008 257.5,210C 253.862,209.241 250.529,208.075 247.5,206.5C 256.786,207.613 266.119,207.78 275.5,207C 276.705,205.624 278.038,204.458 279.5,203.5 Z"/></g>
<g><path style="opacity:0.925" fill="#c3b360" d="M 356.5,196.5 C 354.745,197.962 353.412,199.795 352.5,202C 346.691,203.454 341.357,205.788 336.5,209C 332.179,209.499 327.846,209.666 323.5,209.5C 323.473,207.801 322.806,206.467 321.5,205.5C 324.494,206.154 327.494,206.821 330.5,207.5C 333.812,206.562 337.145,205.729 340.5,205C 345.082,200.874 350.415,198.041 356.5,196.5 Z"/></g>
<g><path style="opacity:0.998" fill="#ec8e3d" d="M 152.5,231.5 C 159.627,236.362 166.627,241.362 173.5,246.5C 175.348,250.101 177.015,253.768 178.5,257.5C 180.298,262.808 179.798,267.808 177,272.5C 173.668,275.566 170.501,278.733 167.5,282C 162.756,283.207 158.423,285.207 154.5,288C 148.112,288.439 141.778,289.272 135.5,290.5C 129.58,288.354 123.58,286.521 117.5,285C 109,281.167 102.833,275 99,266.5C 95.7015,255.272 98.8682,246.605 108.5,240.5C 122.023,232.564 136.689,229.564 152.5,231.5 Z"/></g>
<g><path style="opacity:0.985" fill="#f5bc61" d="M 453.5,267.5 C 451.747,269.223 449.747,270.723 447.5,272C 444.139,272.054 441.139,273.054 438.5,275C 429.814,275.832 421.147,275.665 412.5,274.5C 411.757,273.818 411.091,273.151 410.5,272.5C 415.035,273.643 419.702,274.309 424.5,274.5C 431.518,275.412 437.852,273.912 443.5,270C 446.929,269.467 450.262,268.633 453.5,267.5 Z"/></g>
<g><path style="opacity:0.997" fill="#98301a" d="M 221.5,285.5 C 223.048,285.821 223.715,286.821 223.5,288.5C 225.5,289.167 227.5,289.833 229.5,290.5C 230.714,293.253 232.214,295.92 234,298.5C 238.289,310.275 242.789,321.941 247.5,333.5C 248.551,334.222 249.218,335.222 249.5,336.5C 249.818,341.659 249.152,346.659 247.5,351.5C 246.577,352.303 245.577,352.47 244.5,352C 241.442,348.62 238.109,345.454 234.5,342.5C 230.684,333.7 227.684,324.7 225.5,315.5C 225.167,315.5 224.833,315.5 224.5,315.5C 222.282,305.683 221.282,295.683 221.5,285.5 Z"/></g>
<g><path style="opacity:0.997" fill="#98301a" d="M 380.5,292.5 C 380.5,293.167 380.833,293.5 381.5,293.5C 380.807,305.964 379.307,318.297 377,330.5C 374.511,335.473 371.511,340.14 368,344.5C 367.517,345.448 367.351,346.448 367.5,347.5C 364.412,347.197 362.746,348.53 362.5,351.5C 361.5,351.5 360.5,351.5 359.5,351.5C 359.719,352.675 359.386,353.675 358.5,354.5C 356.184,355.496 354.517,357.163 353.5,359.5C 351.339,360.035 349.339,360.868 347.5,362C 336.941,365.195 328.275,362.695 321.5,354.5C 321.321,350.365 320.655,346.365 319.5,342.5C 319.507,340.631 319.84,338.964 320.5,337.5C 322.279,338.67 323.279,340.336 323.5,342.5C 326.467,343.42 329.133,344.92 331.5,347C 344.781,348.492 354.114,342.992 359.5,330.5C 360.325,329.614 361.325,329.281 362.5,329.5C 362.413,326.261 363.08,323.261 364.5,320.5C 365.315,319.571 366.148,318.571 367,317.5C 368.134,308.579 371.301,300.579 376.5,293.5C 377.736,292.754 379.07,292.421 380.5,292.5 Z"/></g>
<g><path style="opacity:0.987" fill="#e7bf62" d="M 380.5,292.5 C 379.07,292.421 377.736,292.754 376.5,293.5C 371.301,300.579 368.134,308.579 367,317.5C 366.148,318.571 365.315,319.571 364.5,320.5C 366.624,313.666 367.958,306.666 368.5,299.5C 369.5,299.5 370.5,299.5 371.5,299.5C 372.167,296.833 372.833,294.167 373.5,291.5C 375.199,291.38 376.865,291.046 378.5,290.5C 379.713,290.747 380.38,291.414 380.5,292.5 Z"/></g>
<g><path style="opacity:0.878" fill="#ddae59" d="M 221.5,285.5 C 221.282,295.683 222.282,305.683 224.5,315.5C 223.944,310.805 222.777,306.138 221,301.5C 220.183,295.984 220.349,290.65 221.5,285.5 Z"/></g>
<g><path style="opacity:0.763" fill="#f5e2a4" d="M 257.5,346.5 C 256.67,337.009 256.17,327.342 256,317.5C 253.274,322.955 251.774,328.788 251.5,335C 251.164,336.03 250.497,336.53 249.5,336.5C 249.218,335.222 248.551,334.222 247.5,333.5C 249.017,333.489 250.184,332.823 251,331.5C 250.766,324.329 252.433,317.662 256,311.5C 257.457,323.065 257.957,334.732 257.5,346.5 Z"/></g>
<g><path style="opacity:1" fill="#942917" d="M 307.5,336.5 C 307.167,336.5 306.833,336.5 306.5,336.5C 305.533,335.194 304.199,334.527 302.5,334.5C 302.144,333.13 301.31,332.13 300,331.5C 296.336,332.666 293.836,334.999 292.5,338.5C 291.508,331.352 291.175,324.019 291.5,316.5C 296.167,316.5 300.833,316.5 305.5,316.5C 306.946,323.075 307.613,329.742 307.5,336.5 Z"/></g>
<g><path style="opacity:0.995" fill="#efdece" d="M 316.5,333.5 C 317.029,338.822 317.529,344.156 318,349.5C 318.366,351.452 319.199,353.118 320.5,354.5C 319.005,354.415 318.005,355.081 317.5,356.5C 314.572,357.484 311.572,357.817 308.5,357.5C 308.823,351.31 308.49,345.31 307.5,339.5C 307.443,338.391 307.11,337.391 306.5,336.5C 306.833,336.5 307.167,336.5 307.5,336.5C 308.165,333.351 308.498,330.018 308.5,326.5C 308.42,322.573 307.753,318.907 306.5,315.5C 307.097,314.861 307.93,314.528 309,314.5C 311.472,315.322 313.972,315.989 316.5,316.5C 316.5,322.167 316.5,327.833 316.5,333.5 Z"/></g>
<g><path style="opacity:0.994" fill="#ead6cb" d="M 257.5,346.5 C 257.5,346.833 257.5,347.167 257.5,347.5C 257.5,350.5 257.5,353.5 257.5,356.5C 252.389,358.389 249.055,356.722 247.5,351.5C 249.152,346.659 249.818,341.659 249.5,336.5C 250.497,336.53 251.164,336.03 251.5,335C 251.774,328.788 253.274,322.955 256,317.5C 256.17,327.342 256.67,337.009 257.5,346.5 Z"/></g>
<g><path style="opacity:0.996" fill="#ecdacd" d="M 290.5,316.5 C 290.5,324.167 290.5,331.833 290.5,339.5C 290.5,345.5 290.5,351.5 290.5,357.5C 286.723,358.994 282.723,359.661 278.5,359.5C 278.721,356.721 278.388,354.054 277.5,351.5C 278.75,351.423 279.583,350.756 280,349.5C 280.499,345.179 280.666,340.846 280.5,336.5C 280.821,334.952 281.821,334.285 283.5,334.5C 283.337,332.143 283.503,329.81 284,327.5C 285.844,323.545 288.011,319.879 290.5,316.5 Z"/></g>
<g><path style="opacity:0.984" fill="#b86e57" d="M 306.5,315.5 C 307.753,318.907 308.42,322.573 308.5,326.5C 308.498,330.018 308.165,333.351 307.5,336.5C 307.613,329.742 306.946,323.075 305.5,316.5C 300.833,316.5 296.167,316.5 291.5,316.5C 291.175,324.019 291.508,331.352 292.5,338.5C 292.158,339.338 291.492,339.672 290.5,339.5C 290.5,331.833 290.5,324.167 290.5,316.5C 295.64,315.512 300.974,315.179 306.5,315.5 Z"/></g>
<g><path style="opacity:1" fill="#fce676" d="M 302.5,334.5 C 304.199,334.527 305.533,335.194 306.5,336.5C 307.11,337.391 307.443,338.391 307.5,339.5C 307.5,345.167 307.5,350.833 307.5,356.5C 302.167,356.5 296.833,356.5 291.5,356.5C 291.173,351.786 291.507,347.12 292.5,342.5C 293.805,337.164 297.138,334.498 302.5,334.5 Z"/></g>
<g><path style="opacity:0.995" fill="#99331e" d="M 280.5,336.5 C 280.666,340.846 280.499,345.179 280,349.5C 279.583,350.756 278.75,351.423 277.5,351.5C 275.143,351.337 272.81,351.503 270.5,352C 266.303,353.819 261.97,355.319 257.5,356.5C 257.5,353.5 257.5,350.5 257.5,347.5C 261.781,344.866 266.448,343.033 271.5,342C 274.167,339.474 277.167,337.641 280.5,336.5 Z"/></g>
<g><path style="opacity:0.945" fill="#d0a092" d="M 316.5,333.5 C 318.085,334.533 319.419,335.866 320.5,337.5C 319.84,338.964 319.507,340.631 319.5,342.5C 320.655,346.365 321.321,350.365 321.5,354.5C 321.167,354.5 320.833,354.5 320.5,354.5C 319.199,353.118 318.366,351.452 318,349.5C 317.529,344.156 317.029,338.822 316.5,333.5 Z"/></g>
<g><path style="opacity:1" fill="#fbe275" d="M 271.5,352.5 C 273.167,352.5 274.833,352.5 276.5,352.5C 277.301,357.181 275.967,361.014 272.5,364C 267.337,364.817 262.337,364.317 257.5,362.5C 257.5,360.833 257.5,359.167 257.5,357.5C 261.629,357.345 265.629,356.512 269.5,355C 270.381,354.292 271.047,353.458 271.5,352.5 Z"/></g>
<g><path style="opacity:0.857" fill="#f2d7ac" d="M 365.5,380.5 C 359.32,378.818 352.987,378.152 346.5,378.5C 322.833,378.5 299.167,378.5 275.5,378.5C 259.092,378.051 242.758,378.718 226.5,380.5C 229.714,379.718 233.048,378.885 236.5,378C 278.5,377.333 320.5,377.333 362.5,378C 363.571,378.852 364.571,379.685 365.5,380.5 Z"/></g>
<g><path style="opacity:0.976" fill="#fefaf8" d="M 275.5,378.5 C 279.565,379.193 283.732,379.86 288,380.5C 288.818,411.542 288.651,442.542 287.5,473.5C 282.167,473.5 276.833,473.5 271.5,473.5C 271.5,472.5 271.5,471.5 271.5,470.5C 266.394,470.477 261.394,469.811 256.5,468.5C 256.5,467.5 256.5,466.5 256.5,465.5C 253,465.39 249.666,464.557 246.5,463C 245.922,461.583 244.922,460.75 243.5,460.5C 243.167,458.5 242.833,456.5 242.5,454.5C 240.408,454.439 238.908,453.439 238,451.5C 236.566,447.594 236.233,443.594 237,439.5C 239.798,432.386 243.632,425.886 248.5,420C 247.663,418.989 247.33,417.822 247.5,416.5C 246.5,416.5 245.5,416.5 244.5,416.5C 244.719,415.325 244.386,414.325 243.5,413.5C 239.868,409.802 235.535,407.302 230.5,406C 229.663,404.989 229.33,403.822 229.5,402.5C 226.667,401.5 224,400.167 221.5,398.5C 221.54,392.997 222.374,387.664 224,382.5C 224.417,381.244 225.25,380.577 226.5,380.5C 242.758,378.718 259.092,378.051 275.5,378.5 Z"/></g>
<g><path style="opacity:0.989" fill="#eee1db" d="M 275.5,378.5 C 299.167,378.5 322.833,378.5 346.5,378.5C 346.5,382.5 346.5,386.5 346.5,390.5C 346.169,398.528 346.502,406.528 347.5,414.5C 348.183,414.137 348.85,413.804 349.5,413.5C 349.179,415.048 348.179,415.715 346.5,415.5C 344.612,423.715 343.278,432.048 342.5,440.5C 341.498,442.011 340.831,443.678 340.5,445.5C 337.5,445.833 335.833,447.5 335.5,450.5C 329.772,454.509 324.438,459.176 319.5,464.5C 317.955,465.452 316.288,465.785 314.5,465.5C 314.5,466.5 314.5,467.5 314.5,468.5C 309.531,469.494 304.531,470.494 299.5,471.5C 299.291,472.086 298.957,472.586 298.5,473C 294.848,473.499 291.182,473.665 287.5,473.5C 288.651,442.542 288.818,411.542 288,380.5C 283.732,379.86 279.565,379.193 275.5,378.5 Z"/></g>
<g><path style="opacity:0.988" fill="#b7aaa6" d="M 346.5,378.5 C 352.987,378.152 359.32,378.818 365.5,380.5C 367.199,380.34 368.866,380.506 370.5,381C 376.531,384.298 382.197,388.131 387.5,392.5C 388.117,397.269 388.784,401.936 389.5,406.5C 389.5,406.833 389.5,407.167 389.5,407.5C 383.633,407.941 377.966,408.941 372.5,410.5C 365.518,411.361 359.685,414.361 355,419.5C 353.173,426.043 351.673,432.71 350.5,439.5C 348.052,440.473 345.385,440.806 342.5,440.5C 343.278,432.048 344.612,423.715 346.5,415.5C 348.179,415.715 349.179,415.048 349.5,413.5C 355.427,408.835 358.594,402.835 359,395.5C 355.834,391.493 351.668,389.826 346.5,390.5C 346.5,386.5 346.5,382.5 346.5,378.5 Z"/></g>
<g><path style="opacity:0.994" fill="#facc79" d="M 346.5,390.5 C 351.668,389.826 355.834,391.493 359,395.5C 358.594,402.835 355.427,408.835 349.5,413.5C 348.85,413.804 348.183,414.137 347.5,414.5C 346.502,406.528 346.169,398.528 346.5,390.5 Z"/></g>
<g><path style="opacity:0.929" fill="#fbaa20" d="M 221.5,398.5 C 224,400.167 226.667,401.5 229.5,402.5C 229.33,403.822 229.663,404.989 230.5,406C 235.535,407.302 239.868,409.802 243.5,413.5C 244.386,414.325 244.719,415.325 244.5,416.5C 245.5,416.5 246.5,416.5 247.5,416.5C 247.33,417.822 247.663,418.989 248.5,420C 243.632,425.886 239.798,432.386 237,439.5C 236.233,443.594 236.566,447.594 238,451.5C 238.908,453.439 240.408,454.439 242.5,454.5C 242.833,456.5 243.167,458.5 243.5,460.5C 242.244,460.539 241.244,460.039 240.5,459C 230.096,458.304 219.763,458.804 209.5,460.5C 209.5,461.5 209.5,462.5 209.5,463.5C 204.964,463.433 200.631,464.099 196.5,465.5C 196.5,466.5 196.5,467.5 196.5,468.5C 191.526,469.326 186.526,469.993 181.5,470.5C 181.5,471.5 181.5,472.5 181.5,473.5C 176.911,473.118 172.577,473.951 168.5,476C 158.5,476.667 148.5,476.667 138.5,476C 136.061,474.39 133.394,473.556 130.5,473.5C 130.167,470.5 128.5,468.833 125.5,468.5C 125.849,465.955 125.016,463.955 123,462.5C 122.5,453.506 122.334,444.506 122.5,435.5C 123.5,435.5 124.5,435.5 125.5,435.5C 125.5,433.833 125.5,432.167 125.5,430.5C 126.5,430.5 127.5,430.5 128.5,430.5C 128.831,428.678 129.498,427.011 130.5,425.5C 132.677,425.414 134.677,424.747 136.5,423.5C 139.654,420.757 142.988,418.257 146.5,416C 147.252,415.329 147.586,414.496 147.5,413.5C 159.522,408.235 171.855,404.068 184.5,401C 196.818,399.837 209.151,399.004 221.5,398.5 Z"/></g>
<g><path style="opacity:0.841" fill="#cca876" d="M 389.5,407.5 C 389.586,408.496 389.252,409.329 388.5,410C 383.177,410.499 377.844,410.666 372.5,410.5C 377.966,408.941 383.633,407.941 389.5,407.5 Z"/></g>
<g><path style="opacity:0.85" fill="#faa91e" d="M 389.5,407.5 C 393.173,409.318 397.173,409.984 401.5,409.5C 401.5,410.5 401.5,411.5 401.5,412.5C 420.022,414.856 430.355,425.356 432.5,444C 432.333,445.833 432.167,447.667 432,449.5C 429.315,452.628 427.815,456.295 427.5,460.5C 426.5,460.5 425.5,460.5 424.5,460.5C 424.167,463.5 422.5,465.167 419.5,465.5C 419.5,466.5 419.5,467.5 419.5,468.5C 415.256,469.643 410.923,470.31 406.5,470.5C 406.5,471.5 406.5,472.5 406.5,473.5C 401.821,473.666 397.155,473.499 392.5,473C 388.541,470.668 384.208,469.002 379.5,468C 377.47,466.069 375.137,464.569 372.5,463.5C 371.614,462.675 371.281,461.675 371.5,460.5C 368.813,460.659 366.48,459.825 364.5,458C 362.009,454.876 359.175,452.043 356,449.5C 354.894,446.485 353.728,443.485 352.5,440.5C 351.817,440.137 351.15,439.804 350.5,439.5C 351.673,432.71 353.173,426.043 355,419.5C 359.685,414.361 365.518,411.361 372.5,410.5C 377.844,410.666 383.177,410.499 388.5,410C 389.252,409.329 389.586,408.496 389.5,407.5 Z"/></g>
<g><path style="opacity:1" fill="#fce674" d="M 175.5,413.5 C 192.503,413.333 209.503,413.5 226.5,414C 232.699,416.897 234.866,421.731 233,428.5C 230.403,432.086 227.569,435.586 224.5,439C 208.46,448.737 191.793,457.07 174.5,464C 164.816,464.832 155.149,464.665 145.5,463.5C 136.006,459.242 132.506,451.908 135,441.5C 138.322,434.076 143.488,428.243 150.5,424C 158.911,420.19 167.244,416.69 175.5,413.5 Z"/></g>
<g><path style="opacity:1" fill="#fce573" d="M 370.5,418.5 C 378.84,418.334 387.173,418.5 395.5,419C 399.613,421.059 403.947,422.559 408.5,423.5C 408.5,424.5 408.5,425.5 408.5,426.5C 411.847,428.191 415.181,429.858 418.5,431.5C 418.5,432.5 418.5,433.5 418.5,434.5C 419.5,434.5 420.5,434.5 421.5,434.5C 423.543,448.596 418.209,458.429 405.5,464C 397.691,465.594 391.025,463.594 385.5,458C 382.046,456.698 378.712,455.198 375.5,453.5C 373.486,451.155 371.153,449.155 368.5,447.5C 367.571,446.311 367.238,444.978 367.5,443.5C 364.158,442.988 362.324,440.988 362,437.5C 361.5,435.5 361,433.5 360.5,431.5C 361.762,428.978 362.429,426.311 362.5,423.5C 365.49,422.339 368.157,420.672 370.5,418.5 Z"/></g>
</svg>
