<?xml version="1.0" encoding="UTF-8"?>
<!DOCTYPE svg PUBLIC "-//W3C//DTD SVG 1.1//EN" "http://www.w3.org/Graphics/SVG/1.1/DTD/svg11.dtd">
<svg xmlns="http://www.w3.org/2000/svg" version="1.1" width="512px" height="512px" style="shape-rendering:geometricPrecision; text-rendering:geometricPrecision; image-rendering:optimizeQuality; fill-rule:evenodd; clip-rule:evenodd" xmlns:xlink="http://www.w3.org/1999/xlink">
<g><path style="opacity:0.956" fill="#edad54" d="M 359.5,48.5 C 358.603,52.6198 356.436,55.9531 353,58.5C 352.333,69.1667 352.333,79.8333 353,90.5C 354.686,94.4479 356.186,94.4479 357.5,90.5C 357.657,91.8734 357.49,93.2068 357,94.5C 355.488,95.2567 354.154,96.2567 353,97.5C 352.667,97.1667 352.333,96.8333 352,96.5C 351.974,84.3234 351.141,72.3234 349.5,60.5C 342.943,57.8882 336.61,54.7216 330.5,51C 322.57,48.7881 314.57,46.7881 306.5,45C 305.833,44.3333 305.167,43.6667 304.5,43C 288.636,40.8514 272.636,39.018 256.5,37.5C 241.21,39.6645 225.876,41.4978 210.5,43C 202.185,45.2162 193.852,46.8829 185.5,48C 177.773,50.7722 170.106,53.4388 162.5,56C 160.686,58.4815 160.02,61.3148 160.5,64.5C 159.079,61.7062 158.079,58.7062 157.5,55.5C 155.302,54.9856 153.302,53.9856 151.5,52.5C 150.571,51.3112 150.238,49.9778 150.5,48.5C 153.025,47.36 155.692,46.6933 158.5,46.5C 158.5,45.5 158.5,44.5 158.5,43.5C 160.288,43.7852 161.955,43.4519 163.5,42.5C 167.422,40.051 171.422,37.8843 175.5,36C 181.157,34.9825 186.823,34.1491 192.5,33.5C 192.5,32.5 192.5,31.5 192.5,30.5C 204.906,29.0218 216.906,26.8552 228.5,24C 251.209,23.1502 273.875,23.6502 296.5,25.5C 296.5,26.5 296.5,27.5 296.5,28.5C 304.199,28.8643 311.866,29.531 319.5,30.5C 319.5,31.5 319.5,32.5 319.5,33.5C 324.567,33.849 329.567,34.6823 334.5,36C 338.149,38.2239 341.815,40.3905 345.5,42.5C 347.045,43.4519 348.712,43.7852 350.5,43.5C 350.5,44.5 350.5,45.5 350.5,46.5C 353.564,46.9275 356.564,47.5942 359.5,48.5 Z"/></g>
<g><path style="opacity:0.997" fill="#fce976" d="M 357.5,90.5 C 357.961,88.4496 358.628,86.4496 359.5,84.5C 364.247,77.3431 368.747,70.0098 373,62.5C 373.804,61.1955 374.971,60.5288 376.5,60.5C 378.782,61.2234 381.116,61.5567 383.5,61.5C 383.5,62.5 383.5,63.5 383.5,64.5C 386.308,64.6933 388.975,65.36 391.5,66.5C 391.5,67.5 391.5,68.5 391.5,69.5C 395.567,70.3408 398.901,72.3408 401.5,75.5C 402.325,76.3857 403.325,76.719 404.5,76.5C 404.833,79.5 406.5,81.1667 409.5,81.5C 409.281,82.675 409.614,83.675 410.5,84.5C 412.304,86.9799 414.637,88.6465 417.5,89.5C 417.833,92.5 419.5,94.1667 422.5,94.5C 422.833,97.5 424.5,99.1667 427.5,99.5C 427.281,100.675 427.614,101.675 428.5,102.5C 431.167,105.167 433.833,107.833 436.5,110.5C 437.452,112.045 437.785,113.712 437.5,115.5C 439.179,115.285 440.179,115.952 440.5,117.5C 436.916,118.131 433.249,118.465 429.5,118.5C 422.135,118.042 414.802,117.375 407.5,116.5C 406.081,115.549 404.415,115.216 402.5,115.5C 400.974,113.87 398.974,113.037 396.5,113C 378.836,112.5 361.17,112.333 343.5,112.5C 343.5,113.5 343.5,114.5 343.5,115.5C 340.482,115.335 337.482,115.502 334.5,116C 332.51,117.751 330.177,118.751 327.5,119C 326.748,119.671 326.414,120.504 326.5,121.5C 321.713,122.547 317.046,124.214 312.5,126.5C 311.614,127.325 311.281,128.325 311.5,129.5C 310.5,129.5 309.5,129.5 308.5,129.5C 304.611,131.058 301.278,133.391 298.5,136.5C 297.33,138.279 295.664,139.279 293.5,139.5C 290.374,141.16 288.707,143.826 288.5,147.5C 286.319,149.764 284.985,152.431 284.5,155.5C 283.195,157.397 282.529,159.731 282.5,162.5C 282.132,167.278 283.132,171.611 285.5,175.5C 287.221,178.995 288.555,182.661 289.5,186.5C 294.63,187.49 299.63,188.824 304.5,190.5C 314.471,187.982 324.471,185.648 334.5,183.5C 334.5,182.5 334.5,181.5 334.5,180.5C 343.113,179.43 351.446,177.263 359.5,174C 372.496,173.5 385.496,173.333 398.5,173.5C 405.027,174.661 411.36,176.328 417.5,178.5C 417.414,179.496 417.748,180.329 418.5,181C 427.58,182.338 436.246,184.838 444.5,188.5C 450.258,191.376 456.258,193.709 462.5,195.5C 464.3,203.11 466.8,210.444 470,217.5C 474.273,236.242 475.606,255.242 474,274.5C 472.998,284.618 471.664,294.618 470,304.5C 468.187,307.388 466.521,310.388 465,313.5C 463.214,319.86 461.214,326.193 459,332.5C 456.244,337.685 453.244,342.685 450,347.5C 449.51,348.793 449.343,350.127 449.5,351.5C 447.461,352.911 446.461,354.911 446.5,357.5C 444.473,357.338 442.473,357.505 440.5,358C 428.86,363.125 416.694,366.959 404,369.5C 402.236,369.456 400.569,369.122 399,368.5C 398.502,365.518 398.335,362.518 398.5,359.5C 401.588,354.32 404.922,349.32 408.5,344.5C 409.458,344.047 410.292,343.381 411,342.5C 412.604,340.008 413.938,337.341 415,334.5C 416.154,333.257 417.488,332.257 419,331.5C 419.497,329.19 419.663,326.857 419.5,324.5C 420.5,324.5 421.5,324.5 422.5,324.5C 423.694,315.02 425.361,305.686 427.5,296.5C 430.942,293.071 433.942,289.404 436.5,285.5C 442.9,276.394 449.567,267.394 456.5,258.5C 453.547,257.32 450.714,257.653 448,259.5C 440.911,264.284 433.411,268.118 425.5,271C 422.956,272.71 420.289,274.21 417.5,275.5C 417.167,275 416.833,274.5 416.5,274C 417.73,271.852 418.73,269.686 419.5,267.5C 421.011,266.498 422.678,265.831 424.5,265.5C 424.472,258.707 427.472,253.707 433.5,250.5C 434.508,246.026 437.175,243.36 441.5,242.5C 441.826,240.339 442.826,238.506 444.5,237C 451.625,233.867 457.125,229.034 461,222.5C 460.874,216.866 458.707,212.032 454.5,208C 445.142,203.453 436.476,197.953 428.5,191.5C 426.955,190.548 425.288,190.215 423.5,190.5C 420.753,190.187 418.086,190.52 415.5,191.5C 414.046,194.124 412.713,196.79 411.5,199.5C 410.675,200.386 409.675,200.719 408.5,200.5C 407.456,206.443 404.956,211.776 401,216.5C 398.98,223.401 396.48,230.067 393.5,236.5C 392.839,237.718 392.172,239.051 391.5,240.5C 390.534,238.604 390.201,236.604 390.5,234.5C 393.013,227.605 394.18,220.272 394,212.5C 395.753,205.872 397.253,199.205 398.5,192.5C 398.5,190.167 398.5,187.833 398.5,185.5C 394.486,185.334 390.486,185.501 386.5,186C 385.944,186.383 385.611,186.883 385.5,187.5C 382.242,192.355 379.742,197.688 378,203.5C 376.209,212.222 374.376,220.889 372.5,229.5C 371.5,229.5 370.5,229.5 369.5,229.5C 369.407,235.636 368.407,241.636 366.5,247.5C 364.649,250.326 363.316,253.326 362.5,256.5C 357.95,263.393 352.617,269.726 346.5,275.5C 344.11,275.855 341.777,276.522 339.5,277.5C 337.626,277.61 336.126,276.944 335,275.5C 334.667,273.167 334.333,270.833 334,268.5C 331.943,265.053 330.443,261.387 329.5,257.5C 328.5,257.5 327.5,257.5 326.5,257.5C 325.128,253.677 323.295,250.011 321,246.5C 318.023,243.464 314.856,240.797 311.5,238.5C 311.063,236.926 310.063,235.759 308.5,235C 307.517,234.409 306.85,234.743 306.5,236C 307.289,244.131 307.789,252.298 308,260.5C 308.915,261.328 309.581,262.328 310,263.5C 311.075,273.447 313.908,282.781 318.5,291.5C 318.957,292.298 319.624,292.631 320.5,292.5C 321.461,294.265 321.795,296.265 321.5,298.5C 322.5,298.5 323.5,298.5 324.5,298.5C 324.5,299.833 324.5,301.167 324.5,302.5C 325.974,307.522 327.308,312.522 328.5,317.5C 325.376,317.943 323.043,319.61 321.5,322.5C 320.205,323.098 318.872,323.598 317.5,324C 307.658,324.825 297.991,324.658 288.5,323.5C 288.667,294.498 288.5,265.498 288,236.5C 287.722,235.584 287.222,234.918 286.5,234.5C 280.099,233.174 273.599,233.174 267,234.5C 266.267,246.826 265.767,259.16 265.5,271.5C 264.833,280.009 264.167,288.676 263.5,297.5C 259.832,292.335 255.666,287.669 251,283.5C 250.5,271.505 250.333,259.505 250.5,247.5C 249.856,236.8 252.022,226.8 257,217.5C 258.15,209.858 258.983,202.192 259.5,194.5C 258.857,185.415 257.69,176.415 256,167.5C 253.736,158.83 250.902,150.496 247.5,142.5C 246.5,142.5 245.5,142.5 244.5,142.5C 244.5,140.833 244.5,139.167 244.5,137.5C 243.5,137.5 242.5,137.5 241.5,137.5C 239.541,134.528 237.541,131.528 235.5,128.5C 234.571,127.311 234.238,125.978 234.5,124.5C 233.127,124.657 231.793,124.49 230.5,124C 229.896,121.532 228.562,119.532 226.5,118C 220.45,115.424 215.117,111.924 210.5,107.5C 200.442,103.659 190.442,99.826 180.5,96C 169.447,89.9155 162.781,80.7489 160.5,68.5C 160.5,67.1667 160.5,65.8333 160.5,64.5C 160.02,61.3148 160.686,58.4815 162.5,56C 170.106,53.4388 177.773,50.7722 185.5,48C 193.852,46.8829 202.185,45.2162 210.5,43C 225.876,41.4978 241.21,39.6645 256.5,37.5C 272.636,39.018 288.636,40.8514 304.5,43C 305.167,43.6667 305.833,44.3333 306.5,45C 314.57,46.7881 322.57,48.7881 330.5,51C 336.61,54.7216 342.943,57.8882 349.5,60.5C 351.141,72.3234 351.974,84.3234 352,96.5C 352.333,96.8333 352.667,97.1667 353,97.5C 354.154,96.2567 355.488,95.2567 357,94.5C 357.49,93.2068 357.657,91.8734 357.5,90.5 Z"/></g>
<g><path style="opacity:0.977" fill="#a54111" d="M 150.5,48.5 C 150.238,49.9778 150.571,51.3112 151.5,52.5C 153.302,53.9856 155.302,54.9856 157.5,55.5C 158.079,58.7062 159.079,61.7062 160.5,64.5C 160.5,65.8333 160.5,67.1667 160.5,68.5C 159.91,76.8888 158.91,85.2222 157.5,93.5C 154.833,93.5 152.167,93.5 149.5,93.5C 150.01,90.6122 149.344,88.2789 147.5,86.5C 147.213,82.366 145.713,78.6994 143,75.5C 141.149,70.4733 139.316,65.4733 137.5,60.5C 134.43,60.3677 131.43,60.701 128.5,61.5C 121.958,61.1542 115.624,61.8209 109.5,63.5C 109.167,66.5 107.5,68.1667 104.5,68.5C 104.5,69.5 104.5,70.5 104.5,71.5C 102.833,71.5 101.167,71.5 99.5,71.5C 99.1667,74.5 97.5,76.1667 94.5,76.5C 94.5,77.5 94.5,78.5 94.5,79.5C 92.8333,79.5 91.1667,79.5 89.5,79.5C 88.4676,76.2943 87.801,72.961 87.5,69.5C 87.4593,64.9614 88.126,60.6281 89.5,56.5C 90.5,56.5 91.5,56.5 92.5,56.5C 92.8333,53.5 94.5,51.8333 97.5,51.5C 97.8333,48.5 99.5,46.8333 102.5,46.5C 102.5,45.5 102.5,44.5 102.5,43.5C 105.394,43.4436 108.061,42.6103 110.5,41C 119.833,40.3333 129.167,40.3333 138.5,41C 140.48,42.8252 142.813,43.6585 145.5,43.5C 145.5,44.5 145.5,45.5 145.5,46.5C 147.781,46.0773 149.448,46.744 150.5,48.5 Z"/></g>
<g><path style="opacity:0.961" fill="#a44110" d="M 383.5,61.5 C 381.116,61.5567 378.782,61.2234 376.5,60.5C 374.971,60.5288 373.804,61.1955 373,62.5C 368.747,70.0098 364.247,77.3431 359.5,84.5C 358.628,86.4496 357.961,88.4496 357.5,90.5C 356.186,94.4479 354.686,94.4479 353,90.5C 352.333,79.8333 352.333,69.1667 353,58.5C 356.436,55.9531 358.603,52.6198 359.5,48.5C 361.591,47.1346 363.924,46.4679 366.5,46.5C 366.903,43.5941 368.569,41.7607 371.5,41C 380.833,40.3333 390.167,40.3333 399.5,41C 401.48,42.8252 403.813,43.6585 406.5,43.5C 406.5,44.5 406.5,45.5 406.5,46.5C 409.308,46.6933 411.975,47.36 414.5,48.5C 414.5,49.5 414.5,50.5 414.5,51.5C 416.143,51.4802 417.476,52.1468 418.5,53.5C 421.73,59.0007 423.896,65.0007 425,71.5C 427.286,74.365 428.12,77.6983 427.5,81.5C 424.167,80.8333 420.833,80.1667 417.5,79.5C 417.5,78.5 417.5,77.5 417.5,76.5C 415.712,76.7852 414.045,76.4519 412.5,75.5C 408.319,72.779 404.319,69.779 400.5,66.5C 399.614,65.675 399.281,64.675 399.5,63.5C 396.167,62.8333 392.833,62.1667 389.5,61.5C 389.5,60.5 389.5,59.5 389.5,58.5C 387.5,58.5 385.5,58.5 383.5,58.5C 383.5,59.5 383.5,60.5 383.5,61.5 Z"/></g>
<g><path style="opacity:0.967" fill="#fccc72" d="M 147.5,86.5 C 148.679,89.3709 148.679,92.2043 147.5,95C 134.453,96.5074 121.787,99.3408 109.5,103.5C 109.5,104.5 109.5,105.5 109.5,106.5C 106.302,105.964 103.635,106.631 101.5,108.5C 99.0301,108.654 97.0301,109.654 95.5,111.5C 90.0282,113.768 84.3616,115.434 78.5,116.5C 78.5,117.5 78.5,118.5 78.5,119.5C 74.21,119.31 70.21,120.31 66.5,122.5C 65.7025,122.957 65.3691,123.624 65.5,124.5C 62.4552,124.508 59.4552,124.841 56.5,125.5C 56.8333,122.5 58.5,120.833 61.5,120.5C 61.5,119.5 61.5,118.5 61.5,117.5C 64.5,117.167 66.1667,115.5 66.5,112.5C 69.5,112.167 71.1667,110.5 71.5,107.5C 72.5,107.5 73.5,107.5 74.5,107.5C 74.8333,104.5 76.5,102.833 79.5,102.5C 81.1667,99.8333 82.8333,97.1667 84.5,94.5C 87.1779,93.9992 89.1779,92.4992 90.5,90C 92.8684,89.1436 95.2017,88.3103 97.5,87.5C 98.8933,82.4635 102.227,79.7969 107.5,79.5C 107.5,78.5 107.5,77.5 107.5,76.5C 110.5,76.1667 112.167,74.5 112.5,71.5C 115.025,70.36 117.692,69.6933 120.5,69.5C 121.506,65.47 124.173,63.8033 128.5,64.5C 128.5,63.5 128.5,62.5 128.5,61.5C 131.43,60.701 134.43,60.3677 137.5,60.5C 139.316,65.4733 141.149,70.4733 143,75.5C 145.713,78.6994 147.213,82.366 147.5,86.5 Z"/></g>
<g><path style="opacity:0.998" fill="#edac54" d="M 160.5,68.5 C 162.781,80.7489 169.447,89.9155 180.5,96C 190.442,99.826 200.442,103.659 210.5,107.5C 215.117,111.924 220.45,115.424 226.5,118C 228.562,119.532 229.896,121.532 230.5,124C 231.793,124.49 233.127,124.657 234.5,124.5C 234.238,125.978 234.571,127.311 235.5,128.5C 237.541,131.528 239.541,134.528 241.5,137.5C 242.5,137.5 243.5,137.5 244.5,137.5C 244.5,139.167 244.5,140.833 244.5,142.5C 245.5,142.5 246.5,142.5 247.5,142.5C 250.902,150.496 253.736,158.83 256,167.5C 257.69,176.415 258.857,185.415 259.5,194.5C 258.983,202.192 258.15,209.858 257,217.5C 252.022,226.8 249.856,236.8 250.5,247.5C 250.167,247.5 249.833,247.5 249.5,247.5C 249.5,242.833 249.5,238.167 249.5,233.5C 244.003,233.213 239.003,231.88 234.5,229.5C 236.727,228.599 237.727,226.933 237.5,224.5C 238.5,224.5 239.5,224.5 240.5,224.5C 240.002,221.319 240.835,218.653 243,216.5C 243.5,204.171 243.667,191.838 243.5,179.5C 242.5,179.5 241.5,179.5 240.5,179.5C 240.662,177.473 240.495,175.473 240,173.5C 239.329,172.748 238.496,172.414 237.5,172.5C 237.663,170.143 237.497,167.81 237,165.5C 235.628,164.09 234.795,162.423 234.5,160.5C 234.5,159.167 234.5,157.833 234.5,156.5C 233.022,156.762 231.689,156.429 230.5,155.5C 228.332,153.168 226.665,150.501 225.5,147.5C 224.311,146.571 222.978,146.238 221.5,146.5C 220.439,140.972 217.106,138.305 211.5,138.5C 211.52,136.857 210.853,135.524 209.5,134.5C 206.606,133.601 203.939,132.268 201.5,130.5C 200.05,129.15 199.383,127.484 199.5,125.5C 194.889,124.515 190.222,123.848 185.5,123.5C 185.5,122.5 185.5,121.5 185.5,120.5C 182.327,119.687 179.327,118.353 176.5,116.5C 171.825,115.723 167.158,115.056 162.5,114.5C 161.833,114.5 161.167,114.5 160.5,114.5C 158.04,113.109 155.374,111.942 152.5,111C 135.688,108.73 118.688,107.897 101.5,108.5C 103.635,106.631 106.302,105.964 109.5,106.5C 109.5,105.5 109.5,104.5 109.5,103.5C 121.787,99.3408 134.453,96.5074 147.5,95C 148.679,92.2043 148.679,89.3709 147.5,86.5C 149.344,88.2789 150.01,90.6122 149.5,93.5C 152.167,93.5 154.833,93.5 157.5,93.5C 158.91,85.2222 159.91,76.8888 160.5,68.5 Z"/></g>
<g><path style="opacity:0.89" fill="#926e3d" d="M 101.5,108.5 C 118.688,107.897 135.688,108.73 152.5,111C 155.374,111.942 158.04,113.109 160.5,114.5C 155.879,115.007 151.546,114.174 147.5,112C 130.067,108.999 112.734,108.833 95.5,111.5C 97.0301,109.654 99.0301,108.654 101.5,108.5 Z"/></g>
<g><path style="opacity:0.999" fill="#2c2a29" d="M 160.5,114.5 C 161.167,114.5 161.833,114.5 162.5,114.5C 162.611,115.117 162.944,115.617 163.5,116C 171.03,117.974 178.364,120.474 185.5,123.5C 186.952,124.302 188.618,124.802 190.5,125C 202.844,132.018 214.011,140.518 224,150.5C 225.438,151.9 226.271,153.567 226.5,155.5C 227.5,155.5 228.5,155.5 229.5,155.5C 229.392,157.514 230.058,159.18 231.5,160.5C 231.5,161.167 231.5,161.833 231.5,162.5C 229.566,169.047 227.733,175.713 226,182.5C 224.391,185.407 222.558,188.073 220.5,190.5C 218.383,191.014 216.216,191.347 214,191.5C 209.707,189.982 205.207,189.316 200.5,189.5C 200.5,188.5 200.5,187.5 200.5,186.5C 197.275,186.589 194.275,185.923 191.5,184.5C 190.228,184.57 189.062,184.903 188,185.5C 181.741,182.803 175.241,180.803 168.5,179.5C 168.5,178.5 168.5,177.5 168.5,176.5C 160.004,175.083 151.337,174.416 142.5,174.5C 142.53,173.503 142.03,172.836 141,172.5C 138.709,171.928 136.375,171.594 134,171.5C 117.536,171.704 101.036,171.704 84.5,171.5C 84.5,170.5 84.5,169.5 84.5,168.5C 83.5,168.5 82.5,168.5 81.5,168.5C 80.1606,161.988 77.8273,155.988 74.5,150.5C 73.5,150.5 72.5,150.5 71.5,150.5C 71.5,149.5 71.5,148.5 71.5,147.5C 75.8843,149.553 78.8843,152.886 80.5,157.5C 82.4321,161.703 84.0988,166.036 85.5,170.5C 94.0168,170.826 102.35,170.493 110.5,169.5C 110.833,169.5 111.167,169.5 111.5,169.5C 119.159,169.09 126.826,168.757 134.5,168.5C 144.338,169.907 154.338,170.574 164.5,170.5C 166.216,170.629 167.883,170.962 169.5,171.5C 172.793,173.776 176.46,175.109 180.5,175.5C 180.5,176.5 180.5,177.5 180.5,178.5C 183.983,178.691 187.316,179.357 190.5,180.5C 190.953,181.458 191.619,182.292 192.5,183C 195.777,184.143 199.11,184.977 202.5,185.5C 203.347,186.966 204.68,187.8 206.5,188C 210.821,188.499 215.154,188.666 219.5,188.5C 220.953,183.537 221.62,178.37 221.5,173C 221.333,169.833 221.167,166.667 221,163.5C 220.617,162.944 220.117,162.611 219.5,162.5C 218.239,155.773 214.906,150.273 209.5,146C 207.065,144.285 204.398,143.118 201.5,142.5C 201.5,141.5 201.5,140.5 201.5,139.5C 196.282,138.591 191.615,136.424 187.5,133C 180.604,130.826 173.937,128.16 167.5,125C 165.527,124.505 163.527,124.338 161.5,124.5C 160.192,123.768 158.858,122.934 157.5,122C 150.706,121.777 144.039,120.777 137.5,119C 118.516,117.019 100.182,118.853 82.5,124.5C 82.3893,125.117 82.056,125.617 81.5,126C 77.16,127.282 72.8266,128.449 68.5,129.5C 71.1943,126.91 74.1943,124.743 77.5,123C 73.2854,122.341 69.2854,122.841 65.5,124.5C 65.3691,123.624 65.7025,122.957 66.5,122.5C 70.21,120.31 74.21,119.31 78.5,119.5C 78.5,118.5 78.5,117.5 78.5,116.5C 84.3616,115.434 90.0282,113.768 95.5,111.5C 112.734,108.833 130.067,108.999 147.5,112C 151.546,114.174 155.879,115.007 160.5,114.5 Z"/></g>
<g><path style="opacity:0.98" fill="#d9ca69" d="M 402.5,115.5 C 391.769,113.925 380.936,113.258 370,113.5C 361.139,113.502 352.639,114.169 344.5,115.5C 340.955,116.239 337.622,117.572 334.5,119.5C 331.487,119.107 328.82,119.774 326.5,121.5C 326.414,120.504 326.748,119.671 327.5,119C 330.177,118.751 332.51,117.751 334.5,116C 337.482,115.502 340.482,115.335 343.5,115.5C 343.5,114.5 343.5,113.5 343.5,112.5C 361.17,112.333 378.836,112.5 396.5,113C 398.974,113.037 400.974,113.87 402.5,115.5 Z"/></g>
<g><path style="opacity:0.922" fill="#9c9150" d="M 402.5,115.5 C 404.415,115.216 406.081,115.549 407.5,116.5C 394.744,115.098 381.911,114.431 369,114.5C 360.801,114.547 352.634,114.88 344.5,115.5C 352.639,114.169 361.139,113.502 370,113.5C 380.936,113.258 391.769,113.925 402.5,115.5 Z"/></g>
<g><path style="opacity:0.986" fill="#bc8a47" d="M 162.5,114.5 C 167.158,115.056 171.825,115.723 176.5,116.5C 179.327,118.353 182.327,119.687 185.5,120.5C 185.5,121.5 185.5,122.5 185.5,123.5C 178.364,120.474 171.03,117.974 163.5,116C 162.944,115.617 162.611,115.117 162.5,114.5 Z"/></g>
<g><path style="opacity:0.82" fill="#837b46" d="M 407.5,117.5 C 407.5,117.167 407.5,116.833 407.5,116.5C 414.802,117.375 422.135,118.042 429.5,118.5C 433.249,118.465 436.916,118.131 440.5,117.5C 442.048,117.821 442.715,118.821 442.5,120.5C 430.781,119.911 419.115,118.911 407.5,117.5 Z"/></g>
<g><path style="opacity:0.986" fill="#34332d" d="M 407.5,116.5 C 407.5,116.833 407.5,117.167 407.5,117.5C 405.5,117.5 403.5,117.5 401.5,117.5C 401.5,118.5 401.5,119.5 401.5,120.5C 408.167,121.167 414.833,121.833 421.5,122.5C 421.5,123.5 421.5,124.5 421.5,125.5C 424.167,125.5 426.833,125.5 429.5,125.5C 429.5,126.5 429.5,127.5 429.5,128.5C 427.784,128.371 426.117,128.038 424.5,127.5C 419.703,124.459 414.37,123.126 408.5,123.5C 407.486,122.235 405.986,121.569 404,121.5C 398.533,120.506 393.033,119.84 387.5,119.5C 377.681,118.506 367.681,118.173 357.5,118.5C 367.325,117.67 377.325,117.17 387.5,117C 377.908,115.413 368.242,115.08 358.5,116C 350.357,116.464 342.357,117.631 334.5,119.5C 337.622,117.572 340.955,116.239 344.5,115.5C 352.634,114.88 360.801,114.547 369,114.5C 381.911,114.431 394.744,115.098 407.5,116.5 Z"/></g>
<g><path style="opacity:0.994" fill="#c4c4c4" d="M 161.5,124.5 C 143.396,121.46 125.062,120.293 106.5,121C 98.4121,122.169 90.4121,123.335 82.5,124.5C 100.182,118.853 118.516,117.019 137.5,119C 144.039,120.777 150.706,121.777 157.5,122C 158.858,122.934 160.192,123.768 161.5,124.5 Z"/></g>
<g><path style="opacity:0.995" fill="#d5d5d5" d="M 387.5,119.5 C 393.033,119.84 398.533,120.506 404,121.5C 405.986,121.569 407.486,122.235 408.5,123.5C 396.455,122.709 384.455,121.709 372.5,120.5C 362.504,121.217 352.504,122.051 342.5,123C 341.756,124.039 340.756,124.539 339.5,124.5C 339.953,123.542 340.619,122.708 341.5,122C 356.718,119.712 372.051,118.879 387.5,119.5 Z"/></g>
<g><path style="opacity:0.999" fill="#fcfcfc" d="M 161.5,124.5 C 163.527,124.338 165.527,124.505 167.5,125C 173.937,128.16 180.604,130.826 187.5,133C 191.615,136.424 196.282,138.591 201.5,139.5C 201.5,140.5 201.5,141.5 201.5,142.5C 204.398,143.118 207.065,144.285 209.5,146C 214.906,150.273 218.239,155.773 219.5,162.5C 220.952,170.922 220.619,179.255 218.5,187.5C 212.943,187.847 207.61,187.18 202.5,185.5C 199.11,184.977 195.777,184.143 192.5,183C 191.619,182.292 190.953,181.458 190.5,180.5C 184.287,175.905 177.287,172.905 169.5,171.5C 167.883,170.962 166.216,170.629 164.5,170.5C 148.814,167.585 132.814,166.752 116.5,168C 114.618,168.198 112.952,168.698 111.5,169.5C 111.167,169.5 110.833,169.5 110.5,169.5C 102.5,169.5 94.5,169.5 86.5,169.5C 86.6567,168.127 86.49,166.793 86,165.5C 84.6113,162.433 82.7779,159.767 80.5,157.5C 78.8843,152.886 75.8843,149.553 71.5,147.5C 70.8333,147.5 70.5,147.167 70.5,146.5C 69.9688,144.376 68.6355,142.876 66.5,142C 64.1667,141.667 61.8333,141.333 59.5,141C 57.4556,140.502 56.1223,139.335 55.5,137.5C 60.229,135.555 64.5623,132.888 68.5,129.5C 72.8266,128.449 77.16,127.282 81.5,126C 82.056,125.617 82.3893,125.117 82.5,124.5C 90.4121,123.335 98.4121,122.169 106.5,121C 125.062,120.293 143.396,121.46 161.5,124.5 Z"/></g>
<g><path style="opacity:0.953" fill="#6f6f6f" d="M 357.5,118.5 C 367.681,118.173 377.681,118.506 387.5,119.5C 372.051,118.879 356.718,119.712 341.5,122C 340.619,122.708 339.953,123.542 339.5,124.5C 336.335,123.964 333.669,124.797 331.5,127C 326.795,127.114 322.462,128.281 318.5,130.5C 319.737,128.903 321.404,127.737 323.5,127C 328.218,124.82 333.218,123.487 338.5,123C 339.167,122.333 339.833,121.667 340.5,121C 346.136,119.85 351.803,119.017 357.5,118.5 Z"/></g>
<g><path style="opacity:0.999" fill="#fbfbfb" d="M 408.5,123.5 C 410.953,124.217 413.287,125.384 415.5,127C 418.482,127.498 421.482,127.665 424.5,127.5C 429.12,130.387 434.12,132.72 439.5,134.5C 444.455,137.718 449.788,140.218 455.5,142C 456.731,143.405 458.064,144.571 459.5,145.5C 463.676,149.165 466.843,153.498 469,158.5C 471.028,165.694 471.861,173.027 471.5,180.5C 470.076,182.515 469.41,184.848 469.5,187.5C 463.252,188.022 457.252,187.355 451.5,185.5C 444.011,182.507 436.677,179.173 429.5,175.5C 428.192,174.768 426.858,173.934 425.5,173C 419.706,170.78 413.706,169.114 407.5,168C 397.458,167.678 387.458,166.845 377.5,165.5C 364.885,166.239 352.385,167.572 340,169.5C 338.566,169.138 337.399,168.472 336.5,167.5C 334.825,164.394 333.158,161.061 331.5,157.5C 327.834,152.504 323.834,147.837 319.5,143.5C 318.064,141.917 316.398,140.417 314.5,139C 313.552,138.517 312.552,138.351 311.5,138.5C 311.5,137.5 311.5,136.5 311.5,135.5C 312.552,135.649 313.552,135.483 314.5,135C 315.699,133.306 317.032,131.806 318.5,130.5C 322.462,128.281 326.795,127.114 331.5,127C 333.669,124.797 336.335,123.964 339.5,124.5C 340.756,124.539 341.756,124.039 342.5,123C 352.504,122.051 362.504,121.217 372.5,120.5C 384.455,121.709 396.455,122.709 408.5,123.5 Z"/></g>
<g><path style="opacity:0.968" fill="#202020" d="M 68.5,129.5 C 64.5623,132.888 60.229,135.555 55.5,137.5C 54.5655,138.568 54.2322,139.901 54.5,141.5C 60.3761,141.632 65.7095,143.299 70.5,146.5C 70.5,147.167 70.8333,147.5 71.5,147.5C 71.5,148.5 71.5,149.5 71.5,150.5C 72.5,150.5 73.5,150.5 74.5,150.5C 77.8273,155.988 80.1606,161.988 81.5,168.5C 82.5,168.5 83.5,168.5 84.5,168.5C 84.5,169.5 84.5,170.5 84.5,171.5C 101.036,171.704 117.536,171.704 134,171.5C 136.375,171.594 138.709,171.928 141,172.5C 142.03,172.836 142.53,173.503 142.5,174.5C 134.648,174.175 126.982,174.508 119.5,175.5C 116.833,175.5 114.167,175.5 111.5,175.5C 103.804,176.145 96.1375,177.145 88.5,178.5C 88.2907,179.086 87.9574,179.586 87.5,180C 74.0114,183.028 61.0114,187.528 48.5,193.5C 47.453,191.849 46.2863,190.183 45,188.5C 44.3292,187.748 43.4959,187.414 42.5,187.5C 40.0708,181.743 38.2375,175.743 37,169.5C 34.7789,166.607 33.6123,163.274 33.5,159.5C 32.5,159.5 31.5,159.5 30.5,159.5C 29.861,155.112 31.1943,151.446 34.5,148.5C 35.4519,146.955 35.7852,145.288 35.5,143.5C 36.5,143.5 37.5,143.5 38.5,143.5C 38.7984,138.222 41.4651,134.888 46.5,133.5C 46.8333,130.5 48.5,128.833 51.5,128.5C 51.5,127.5 51.5,126.5 51.5,125.5C 53.1667,125.5 54.8333,125.5 56.5,125.5C 59.4552,124.841 62.4552,124.508 65.5,124.5C 69.2854,122.841 73.2854,122.341 77.5,123C 74.1943,124.743 71.1943,126.91 68.5,129.5 Z"/></g>
<g><path style="opacity:0.816" fill="#a9a9a9" d="M 408.5,123.5 C 414.37,123.126 419.703,124.459 424.5,127.5C 421.482,127.665 418.482,127.498 415.5,127C 413.287,125.384 410.953,124.217 408.5,123.5 Z"/></g>
<g><path style="opacity:0.918" fill="#666666" d="M 424.5,127.5 C 426.117,128.038 427.784,128.371 429.5,128.5C 430.978,128.238 432.311,128.571 433.5,129.5C 435.786,130.819 437.786,132.485 439.5,134.5C 434.12,132.72 429.12,130.387 424.5,127.5 Z"/></g>
<g><path style="opacity:0.82" fill="#7e7644" d="M 308.5,129.5 C 308.5,130.5 308.5,131.5 308.5,132.5C 305.099,133.634 301.766,134.968 298.5,136.5C 301.278,133.391 304.611,131.058 308.5,129.5 Z"/></g>
<g><path style="opacity:1" fill="#222221" d="M 357.5,118.5 C 351.803,119.017 346.136,119.85 340.5,121C 339.833,121.667 339.167,122.333 338.5,123C 333.218,123.487 328.218,124.82 323.5,127C 321.404,127.737 319.737,128.903 318.5,130.5C 315.366,131.473 312.366,132.807 309.5,134.5C 308.548,136.045 308.215,137.712 308.5,139.5C 310.199,139.34 311.866,139.506 313.5,140C 315.132,141.82 317.132,142.986 319.5,143.5C 323.834,147.837 327.834,152.504 331.5,157.5C 333.158,161.061 334.825,164.394 336.5,167.5C 336.5,168.5 336.5,169.5 336.5,170.5C 339.978,170.816 343.312,170.316 346.5,169C 364.164,168.5 381.83,168.333 399.5,168.5C 399.577,169.75 400.244,170.583 401.5,171C 387.661,171.169 373.994,171.669 360.5,172.5C 353.713,173.999 346.88,175.665 340,177.5C 334.704,180.467 329.204,182.967 323.5,185C 317.268,186.572 310.934,187.739 304.5,188.5C 300.311,187.622 296.311,186.289 292.5,184.5C 290.164,181.662 288.164,178.662 286.5,175.5C 286.133,166.057 286.8,156.724 288.5,147.5C 289.458,147.047 290.292,146.381 291,145.5C 292.122,143.58 292.956,141.58 293.5,139.5C 295.664,139.279 297.33,138.279 298.5,136.5C 301.766,134.968 305.099,133.634 308.5,132.5C 308.5,131.5 308.5,130.5 308.5,129.5C 309.5,129.5 310.5,129.5 311.5,129.5C 311.281,128.325 311.614,127.325 312.5,126.5C 317.046,124.214 321.713,122.547 326.5,121.5C 328.82,119.774 331.487,119.107 334.5,119.5C 342.357,117.631 350.357,116.464 358.5,116C 368.242,115.08 377.908,115.413 387.5,117C 377.325,117.17 367.325,117.67 357.5,118.5 Z"/></g>
<g><path style="opacity:0.846" fill="#b6b6b6" d="M 318.5,130.5 C 317.032,131.806 315.699,133.306 314.5,135C 313.552,135.483 312.552,135.649 311.5,135.5C 311.5,136.5 311.5,137.5 311.5,138.5C 312.552,138.351 313.552,138.517 314.5,139C 316.398,140.417 318.064,141.917 319.5,143.5C 317.132,142.986 315.132,141.82 313.5,140C 311.866,139.506 310.199,139.34 308.5,139.5C 308.215,137.712 308.548,136.045 309.5,134.5C 312.366,132.807 315.366,131.473 318.5,130.5 Z"/></g>
<g><path style="opacity:0.804" fill="#818181" d="M 55.5,137.5 C 56.1223,139.335 57.4556,140.502 59.5,141C 61.8333,141.333 64.1667,141.667 66.5,142C 68.6355,142.876 69.9688,144.376 70.5,146.5C 65.7095,143.299 60.3761,141.632 54.5,141.5C 54.2322,139.901 54.5655,138.568 55.5,137.5 Z"/></g>
<g><path style="opacity:0.894" fill="#948b4e" d="M 293.5,139.5 C 292.956,141.58 292.122,143.58 291,145.5C 290.292,146.381 289.458,147.047 288.5,147.5C 288.707,143.826 290.374,141.16 293.5,139.5 Z"/></g>
<g><path style="opacity:0.693" fill="#1f1f1f" d="M 407.5,117.5 C 419.115,118.911 430.781,119.911 442.5,120.5C 445.5,120.833 447.167,122.5 447.5,125.5C 448.5,125.5 449.5,125.5 450.5,125.5C 452.167,128.167 453.833,130.833 455.5,133.5C 458.5,133.833 460.167,135.5 460.5,138.5C 463.5,138.833 465.167,140.5 465.5,143.5C 466.675,143.281 467.675,143.614 468.5,144.5C 474.395,151.35 477.895,159.35 479,168.5C 479.414,168.957 479.914,169.291 480.5,169.5C 481.664,176.476 481.831,183.476 481,190.5C 480.005,191.066 479.172,191.733 478.5,192.5C 471.453,192.917 464.453,192.917 457.5,192.5C 456.09,192.132 455.09,191.299 454.5,190C 458.001,189.664 461.501,189.831 465,190.5C 466.986,190.431 468.486,189.765 469.5,188.5C 470.167,188.5 470.5,188.167 470.5,187.5C 472.117,186.411 472.95,184.744 473,182.5C 473.5,175.508 473.666,168.508 473.5,161.5C 472.5,161.5 471.5,161.5 470.5,161.5C 470.567,156.964 469.901,152.631 468.5,148.5C 465.618,147.23 462.618,146.23 459.5,145.5C 458.064,144.571 456.731,143.405 455.5,142C 449.788,140.218 444.455,137.718 439.5,134.5C 437.786,132.485 435.786,130.819 433.5,129.5C 432.311,128.571 430.978,128.238 429.5,128.5C 429.5,127.5 429.5,126.5 429.5,125.5C 426.833,125.5 424.167,125.5 421.5,125.5C 421.5,124.5 421.5,123.5 421.5,122.5C 414.833,121.833 408.167,121.167 401.5,120.5C 401.5,119.5 401.5,118.5 401.5,117.5C 403.5,117.5 405.5,117.5 407.5,117.5 Z"/></g>
<g><path style="opacity:0.992" fill="#ca934b" d="M 185.5,123.5 C 190.222,123.848 194.889,124.515 199.5,125.5C 199.383,127.484 200.05,129.15 201.5,130.5C 203.939,132.268 206.606,133.601 209.5,134.5C 210.853,135.524 211.52,136.857 211.5,138.5C 217.106,138.305 220.439,140.972 221.5,146.5C 222.978,146.238 224.311,146.571 225.5,147.5C 226.665,150.501 228.332,153.168 230.5,155.5C 231.689,156.429 233.022,156.762 234.5,156.5C 234.5,157.833 234.5,159.167 234.5,160.5C 233.5,160.5 232.5,160.5 231.5,160.5C 230.058,159.18 229.392,157.514 229.5,155.5C 228.5,155.5 227.5,155.5 226.5,155.5C 226.271,153.567 225.438,151.9 224,150.5C 214.011,140.518 202.844,132.018 190.5,125C 188.618,124.802 186.952,124.302 185.5,123.5 Z"/></g>
<g><path style="opacity:0.863" fill="#b0a559" d="M 284.5,155.5 C 283.971,157.783 283.637,160.117 283.5,162.5C 284.471,166.78 285.137,171.113 285.5,175.5C 283.132,171.611 282.132,167.278 282.5,162.5C 282.529,159.731 283.195,157.397 284.5,155.5 Z"/></g>
<g><path style="opacity:0.949" fill="#433f2d" d="M 288.5,147.5 C 286.8,156.724 286.133,166.057 286.5,175.5C 286.167,175.5 285.833,175.5 285.5,175.5C 285.137,171.113 284.471,166.78 283.5,162.5C 283.637,160.117 283.971,157.783 284.5,155.5C 284.985,152.431 286.319,149.764 288.5,147.5 Z"/></g>
<g><path style="opacity:0.98" fill="#be7d6a" d="M 231.5,160.5 C 232.5,160.5 233.5,160.5 234.5,160.5C 234.795,162.423 235.628,164.09 237,165.5C 237.497,167.81 237.663,170.143 237.5,172.5C 239.081,174.142 239.747,176.142 239.5,178.5C 237.18,175.716 236.013,172.383 236,168.5C 234.758,166.141 233.258,164.141 231.5,162.5C 231.5,161.833 231.5,161.167 231.5,160.5 Z"/></g>
<g><path style="opacity:0.999" fill="#743398" d="M 231.5,162.5 C 233.258,164.141 234.758,166.141 236,168.5C 236.013,172.383 237.18,175.716 239.5,178.5C 239.5,179.833 239.5,181.167 239.5,182.5C 240.6,190.118 240.767,197.785 240,205.5C 238.785,212.755 237.285,219.755 235.5,226.5C 234.89,227.391 234.557,228.391 234.5,229.5C 229.024,236.88 224.024,244.546 219.5,252.5C 217.088,252.694 216.088,254.027 216.5,256.5C 215.5,256.5 214.5,256.5 213.5,256.5C 213.785,260.038 212.118,261.871 208.5,262C 207.635,263.359 206.635,264.526 205.5,265.5C 196.476,272.679 186.476,277.679 175.5,280.5C 170.965,281.137 166.632,282.137 162.5,283.5C 152.162,284.755 141.829,284.755 131.5,283.5C 123.681,282.311 116.014,280.644 108.5,278.5C 103.488,275.269 98.1546,272.602 92.5,270.5C 91.1667,270.5 89.8333,270.5 88.5,270.5C 88.5,269.5 88.5,268.5 88.5,267.5C 84.9465,265.963 81.6132,263.963 78.5,261.5C 76.4864,259.155 74.153,257.155 71.5,255.5C 70.6143,254.675 70.281,253.675 70.5,252.5C 69.209,252.737 68.209,252.404 67.5,251.5C 64.6009,246.718 61.4342,242.051 58,237.5C 56.5777,233.734 54.911,230.067 53,226.5C 51.853,221.534 51.0197,216.534 50.5,211.5C 50.5,205.5 50.5,199.5 50.5,193.5C 57.7672,189.889 65.4338,187.222 73.5,185.5C 73.7093,184.914 74.0426,184.414 74.5,184C 86.8753,181.073 99.2086,178.24 111.5,175.5C 114.167,175.5 116.833,175.5 119.5,175.5C 128.833,175.5 138.167,175.5 147.5,175.5C 152.712,178.198 158.378,179.198 164.5,178.5C 164.5,179.5 164.5,180.5 164.5,181.5C 169.235,181.71 173.568,183.21 177.5,186C 180.721,186.278 183.721,187.111 186.5,188.5C 192.315,189.385 197.648,191.552 202.5,195C 209.805,198.02 215.805,196.52 220.5,190.5C 222.558,188.073 224.391,185.407 226,182.5C 227.733,175.713 229.566,169.047 231.5,162.5 Z"/></g>
<g><path style="opacity:0.914" fill="#696969" d="M 429.5,175.5 C 424.683,174.528 420.016,173.028 415.5,171C 410.08,170.442 404.747,169.609 399.5,168.5C 381.83,168.333 364.164,168.5 346.5,169C 343.312,170.316 339.978,170.816 336.5,170.5C 336.5,169.5 336.5,168.5 336.5,167.5C 337.399,168.472 338.566,169.138 340,169.5C 352.385,167.572 364.885,166.239 377.5,165.5C 387.458,166.845 397.458,167.678 407.5,168C 413.706,169.114 419.706,170.78 425.5,173C 426.858,173.934 428.192,174.768 429.5,175.5 Z"/></g>
<g><path style="opacity:0.776" fill="#919191" d="M 164.5,170.5 C 154.338,170.574 144.338,169.907 134.5,168.5C 126.826,168.757 119.159,169.09 111.5,169.5C 112.952,168.698 114.618,168.198 116.5,168C 132.814,166.752 148.814,167.585 164.5,170.5 Z"/></g>
<g><path style="opacity:0.889" fill="#8f8f8f" d="M 80.5,157.5 C 82.7779,159.767 84.6113,162.433 86,165.5C 86.49,166.793 86.6567,168.127 86.5,169.5C 94.5,169.5 102.5,169.5 110.5,169.5C 102.35,170.493 94.0168,170.826 85.5,170.5C 84.0988,166.036 82.4321,161.703 80.5,157.5 Z"/></g>
<g><path style="opacity:0.922" fill="#bbbbbb" d="M 169.5,171.5 C 177.287,172.905 184.287,175.905 190.5,180.5C 187.316,179.357 183.983,178.691 180.5,178.5C 180.5,177.5 180.5,176.5 180.5,175.5C 176.46,175.109 172.793,173.776 169.5,171.5 Z"/></g>
<g><path style="opacity:0.969" fill="#484848" d="M 459.5,145.5 C 462.618,146.23 465.618,147.23 468.5,148.5C 469.901,152.631 470.567,156.964 470.5,161.5C 471.5,161.5 472.5,161.5 473.5,161.5C 473.666,168.508 473.5,175.508 473,182.5C 472.95,184.744 472.117,186.411 470.5,187.5C 471.219,185.236 471.552,182.903 471.5,180.5C 471.861,173.027 471.028,165.694 469,158.5C 466.843,153.498 463.676,149.165 459.5,145.5 Z"/></g>
<g><path style="opacity:0.847" fill="#b18244" d="M 30.5,159.5 C 31.5,159.5 32.5,159.5 33.5,159.5C 33.6123,163.274 34.7789,166.607 37,169.5C 38.2375,175.743 40.0708,181.743 42.5,187.5C 39.0573,186.117 37.5573,183.45 38,179.5C 34.0952,175.649 32.5952,170.982 33.5,165.5C 32.5,165.5 31.5,165.5 30.5,165.5C 30.5,163.5 30.5,161.5 30.5,159.5 Z"/></g>
<g><path style="opacity:0.982" fill="#35332d" d="M 399.5,168.5 C 404.747,169.609 410.08,170.442 415.5,171C 420.016,173.028 424.683,174.528 429.5,175.5C 436.677,179.173 444.011,182.507 451.5,185.5C 451.953,186.458 452.619,187.292 453.5,188C 458.823,188.499 464.156,188.666 469.5,188.5C 468.486,189.765 466.986,190.431 465,190.5C 461.501,189.831 458.001,189.664 454.5,190C 455.09,191.299 456.09,192.132 457.5,192.5C 464.453,192.917 471.453,192.917 478.5,192.5C 478.5,193.167 478.5,193.833 478.5,194.5C 473.146,194.569 467.813,194.902 462.5,195.5C 456.258,193.709 450.258,191.376 444.5,188.5C 436.068,183.931 427.068,180.597 417.5,178.5C 411.36,176.328 405.027,174.661 398.5,173.5C 386.011,172.505 373.344,172.171 360.5,172.5C 373.994,171.669 387.661,171.169 401.5,171C 400.244,170.583 399.577,169.75 399.5,168.5 Z"/></g>
<g><path style="opacity:0.851" fill="#5b316a" d="M 111.5,175.5 C 99.2086,178.24 86.8753,181.073 74.5,184C 74.0426,184.414 73.7093,184.914 73.5,185.5C 65.4338,187.222 57.7672,189.889 50.5,193.5C 50.5,199.5 50.5,205.5 50.5,211.5C 50.1667,211.5 49.8333,211.5 49.5,211.5C 49.5,211.167 49.5,210.833 49.5,210.5C 48.9682,204.848 48.6349,199.181 48.5,193.5C 61.0114,187.528 74.0114,183.028 87.5,180C 87.9574,179.586 88.2907,179.086 88.5,178.5C 96.1375,177.145 103.804,176.145 111.5,175.5 Z"/></g>
<g><path style="opacity:0.997" fill="#db995e" d="M 237.5,172.5 C 238.496,172.414 239.329,172.748 240,173.5C 240.495,175.473 240.662,177.473 240.5,179.5C 241.5,179.5 242.5,179.5 243.5,179.5C 243.667,191.838 243.5,204.171 243,216.5C 240.835,218.653 240.002,221.319 240.5,224.5C 239.5,224.5 238.5,224.5 237.5,224.5C 237.727,226.933 236.727,228.599 234.5,229.5C 234.557,228.391 234.89,227.391 235.5,226.5C 238.186,222.296 240.019,217.629 241,212.5C 241.667,202.833 241.667,193.167 241,183.5C 240.617,182.944 240.117,182.611 239.5,182.5C 239.5,181.167 239.5,179.833 239.5,178.5C 239.747,176.142 239.081,174.142 237.5,172.5 Z"/></g>
<g><path style="opacity:0.953" fill="#edac54" d="M 30.5,165.5 C 31.5,165.5 32.5,165.5 33.5,165.5C 32.5952,170.982 34.0952,175.649 38,179.5C 37.5573,183.45 39.0573,186.117 42.5,187.5C 46.2479,194.585 47.5812,202.252 46.5,210.5C 47.5,210.5 48.5,210.5 49.5,210.5C 49.5,210.833 49.5,211.167 49.5,211.5C 50.6904,220.19 52.0238,228.857 53.5,237.5C 54.5,237.5 55.5,237.5 56.5,237.5C 57.64,240.025 58.3067,242.692 58.5,245.5C 59.552,245.351 60.552,245.517 61.5,246C 63.4168,248.122 65.4168,249.955 67.5,251.5C 68.209,252.404 69.209,252.737 70.5,252.5C 70.281,253.675 70.6143,254.675 71.5,255.5C 74.153,257.155 76.4864,259.155 78.5,261.5C 81.6132,263.963 84.9465,265.963 88.5,267.5C 88.5,268.5 88.5,269.5 88.5,270.5C 89.8333,270.5 91.1667,270.5 92.5,270.5C 92.5,271.5 92.5,272.5 92.5,273.5C 96.5419,274.023 100.209,275.523 103.5,278C 105.134,278.494 106.801,278.66 108.5,278.5C 116.014,280.644 123.681,282.311 131.5,283.5C 132.263,284.268 133.263,284.768 134.5,285C 139.167,285.167 143.833,285.333 148.5,285.5C 153.551,285.493 158.217,284.827 162.5,283.5C 166.182,283.665 169.848,283.499 173.5,283C 174.756,282.583 175.423,281.75 175.5,280.5C 177.857,280.663 180.19,280.497 182.5,280C 184.911,278.417 187.578,277.417 190.5,277C 192.965,274.469 195.965,272.969 199.5,272.5C 202.206,270.743 204.206,268.41 205.5,265.5C 206.635,264.526 207.635,263.359 208.5,262C 212.118,261.871 213.785,260.038 213.5,256.5C 214.5,256.5 215.5,256.5 216.5,256.5C 216.088,254.027 217.088,252.694 219.5,252.5C 220.496,252.414 221.329,252.748 222,253.5C 222.973,256.579 223.806,259.579 224.5,262.5C 224.5,264.167 224.5,265.833 224.5,267.5C 224.76,273.172 225.093,278.839 225.5,284.5C 224.883,284.389 224.383,284.056 224,283.5C 223.829,278.136 223.329,272.802 222.5,267.5C 219.663,271.19 216.996,274.857 214.5,278.5C 211.01,278.245 208.343,279.578 206.5,282.5C 200.339,285.081 194.339,287.915 188.5,291C 155.213,297.262 122.88,294.429 91.5,282.5C 91.5,283.833 91.5,285.167 91.5,286.5C 90.2745,285.063 89.2745,283.396 88.5,281.5C 86.5101,280.502 84.5101,279.502 82.5,278.5C 81.5159,281.428 81.1826,284.428 81.5,287.5C 80.6787,284.359 80.1787,281.025 80,277.5C 74.7656,274.795 69.9322,271.462 65.5,267.5C 64.3761,263.971 62.0428,261.638 58.5,260.5C 54.7034,256.643 51.0368,252.643 47.5,248.5C 46.1268,246.51 45.1268,244.343 44.5,242C 43.0069,240.632 41.5069,240.465 40,241.5C 39.0018,260.572 39.6684,279.572 42,298.5C 45.9814,309.33 49.6481,320.33 53,331.5C 60.0646,346.353 67.5646,361.02 75.5,375.5C 76.5,375.5 77.5,375.5 78.5,375.5C 78.2963,379.281 79.963,381.614 83.5,382.5C 84.744,386.553 86.744,390.22 89.5,393.5C 93.7234,397.602 97.7234,401.935 101.5,406.5C 103.609,407.65 105.609,408.984 107.5,410.5C 108.386,411.325 108.719,412.325 108.5,413.5C 112.995,417.458 117.995,420.958 123.5,424C 126.242,425.886 127.909,428.386 128.5,431.5C 129.833,431.5 131.167,431.5 132.5,431.5C 132.5,432.5 132.5,433.5 132.5,434.5C 133.873,434.343 135.207,434.51 136.5,435C 141.686,437.139 146.353,440.139 150.5,444C 179.67,459.039 210.67,468.372 243.5,472C 253.167,472.667 262.833,472.667 272.5,472C 279.059,470.745 285.726,470.078 292.5,470C 309.744,463.209 327.077,456.709 344.5,450.5C 357.546,443.652 369.88,435.819 381.5,427C 382.833,426.667 384.167,426.333 385.5,426C 388.876,422.658 392.209,419.325 395.5,416C 396.448,415.517 397.448,415.351 398.5,415.5C 398.281,414.325 398.614,413.325 399.5,412.5C 405.5,407.833 410.833,402.5 415.5,396.5C 416.325,395.614 417.325,395.281 418.5,395.5C 420.473,391.543 422.806,387.876 425.5,384.5C 426.822,384.67 427.989,384.337 429,383.5C 431.135,378.223 434.468,373.889 439,370.5C 440.059,365.643 442.725,361.976 447,359.5C 447.941,356.846 448.774,354.179 449.5,351.5C 449.343,350.127 449.51,348.793 450,347.5C 453.244,342.685 456.244,337.685 459,332.5C 461.214,326.193 463.214,319.86 465,313.5C 466.521,310.388 468.187,307.388 470,304.5C 471.664,294.618 472.998,284.618 474,274.5C 475.606,255.242 474.273,236.242 470,217.5C 466.8,210.444 464.3,203.11 462.5,195.5C 467.813,194.902 473.146,194.569 478.5,194.5C 479.931,194.881 480.764,195.881 481,197.5C 482.66,207.43 483.66,217.43 484,227.5C 484.667,228.167 485.333,228.833 486,229.5C 486.667,247.167 486.667,264.833 486,282.5C 485.586,282.957 485.086,283.291 484.5,283.5C 483.333,292.837 482.166,302.17 481,311.5C 480.586,311.957 480.086,312.291 479.5,312.5C 477.662,320.985 475.662,329.318 473.5,337.5C 472.5,337.5 471.5,337.5 470.5,337.5C 470.31,341.923 469.643,346.256 468.5,350.5C 467.5,350.5 466.5,350.5 465.5,350.5C 464.833,353.833 464.167,357.167 463.5,360.5C 462.5,360.5 461.5,360.5 460.5,360.5C 459.982,363.887 459.149,367.221 458,370.5C 456.385,373.574 454.218,376.241 451.5,378.5C 450.548,380.045 450.215,381.712 450.5,383.5C 449.5,383.5 448.5,383.5 447.5,383.5C 445.963,389.353 442.629,393.686 437.5,396.5C 437.785,398.288 437.452,399.955 436.5,401.5C 434.696,403.98 432.363,405.647 429.5,406.5C 429.271,408.433 428.438,410.1 427,411.5C 421.5,416.333 416.333,421.5 411.5,427C 410.1,428.438 408.433,429.271 406.5,429.5C 405.647,432.363 403.98,434.696 401.5,436.5C 399.955,437.452 398.288,437.785 396.5,437.5C 396.167,440.5 394.5,442.167 391.5,442.5C 391.5,443.5 391.5,444.5 391.5,445.5C 388.692,445.693 386.025,446.36 383.5,447.5C 383.5,448.5 383.5,449.5 383.5,450.5C 377.906,451.203 373.24,453.703 369.5,458C 366.632,459.383 363.632,460.216 360.5,460.5C 360.5,461.5 360.5,462.5 360.5,463.5C 357.167,464.167 353.833,464.833 350.5,465.5C 350.5,466.5 350.5,467.5 350.5,468.5C 346.201,469.347 341.867,470.013 337.5,470.5C 337.5,471.5 337.5,472.5 337.5,473.5C 328.712,475.484 320.045,477.984 311.5,481C 303.186,482.275 294.853,483.442 286.5,484.5C 286.291,485.086 285.957,485.586 285.5,486C 265.833,486.667 246.167,486.667 226.5,486C 226.043,485.586 225.709,485.086 225.5,484.5C 216.333,483.871 207.333,482.704 198.5,481C 198.043,480.586 197.709,480.086 197.5,479.5C 188.774,477.622 180.107,475.622 171.5,473.5C 171.5,472.5 171.5,471.5 171.5,470.5C 167.535,469.631 163.535,468.798 159.5,468C 156.572,465.689 153.238,464.022 149.5,463C 143.037,459.414 136.704,455.581 130.5,451.5C 129.147,450.476 128.48,449.143 128.5,447.5C 124.209,448.18 121.543,446.514 120.5,442.5C 118.202,441.69 115.868,440.856 113.5,440C 109.548,434.873 104.881,430.706 99.5,427.5C 99.1667,424.5 97.5,422.833 94.5,422.5C 94.1667,419.5 92.5,417.833 89.5,417.5C 89.1667,414.5 87.5,412.833 84.5,412.5C 84.5,411.5 84.5,410.5 84.5,409.5C 83.5,409.5 82.5,409.5 81.5,409.5C 81.1667,406.5 79.5,404.833 76.5,404.5C 76.1667,401.5 74.5,399.833 71.5,399.5C 68.963,395.693 66.6297,391.693 64.5,387.5C 63.675,386.614 62.675,386.281 61.5,386.5C 59.5951,382.34 57.9284,378.007 56.5,373.5C 55.5,373.5 54.5,373.5 53.5,373.5C 52.8333,370.167 52.1667,366.833 51.5,363.5C 50.5,363.5 49.5,363.5 48.5,363.5C 47.8333,360.167 47.1667,356.833 46.5,353.5C 45.5,353.5 44.5,353.5 43.5,353.5C 43.6602,351.801 43.4935,350.134 43,348.5C 40.3275,343.945 37.9941,339.278 36,334.5C 34.6823,329.567 33.849,324.567 33.5,319.5C 32.5,319.5 31.5,319.5 30.5,319.5C 29.531,311.866 28.8643,304.199 28.5,296.5C 27.5,296.5 26.5,296.5 25.5,296.5C 24.1026,280.99 23.436,265.323 23.5,249.5C 23.4747,232.679 24.1414,216.012 25.5,199.5C 26.5,199.5 27.5,199.5 28.5,199.5C 28.7697,188.138 29.4364,176.805 30.5,165.5 Z"/></g>
<g><path style="opacity:0.949" fill="#a79c55" d="M 417.5,178.5 C 427.068,180.597 436.068,183.931 444.5,188.5C 436.246,184.838 427.58,182.338 418.5,181C 417.748,180.329 417.414,179.496 417.5,178.5 Z"/></g>
<g><path style="opacity:1" fill="#29212d" d="M 119.5,175.5 C 126.982,174.508 134.648,174.175 142.5,174.5C 151.337,174.416 160.004,175.083 168.5,176.5C 168.5,177.5 168.5,178.5 168.5,179.5C 175.241,180.803 181.741,182.803 188,185.5C 189.062,184.903 190.228,184.57 191.5,184.5C 194.275,185.923 197.275,186.589 200.5,186.5C 200.5,187.5 200.5,188.5 200.5,189.5C 205.207,189.316 209.707,189.982 214,191.5C 216.216,191.347 218.383,191.014 220.5,190.5C 215.805,196.52 209.805,198.02 202.5,195C 197.648,191.552 192.315,189.385 186.5,188.5C 186.196,187.85 185.863,187.183 185.5,186.5C 178.572,184.415 171.906,181.748 165.5,178.5C 159.377,177.628 153.377,176.628 147.5,175.5C 138.167,175.5 128.833,175.5 119.5,175.5 Z"/></g>
<g><path style="opacity:0.925" fill="#5a2c73" d="M 147.5,175.5 C 153.377,176.628 159.377,177.628 165.5,178.5C 171.906,181.748 178.572,184.415 185.5,186.5C 185.863,187.183 186.196,187.85 186.5,188.5C 183.721,187.111 180.721,186.278 177.5,186C 173.568,183.21 169.235,181.71 164.5,181.5C 164.5,180.5 164.5,179.5 164.5,178.5C 158.378,179.198 152.712,178.198 147.5,175.5 Z"/></g>
<g><path style="opacity:0.988" fill="#e8832e" d="M 398.5,192.5 C 397.272,193.306 396.272,194.306 395.5,195.5C 396.167,192.5 396.833,189.5 397.5,186.5C 393.434,186.307 389.434,186.64 385.5,187.5C 385.611,186.883 385.944,186.383 386.5,186C 390.486,185.501 394.486,185.334 398.5,185.5C 398.5,187.833 398.5,190.167 398.5,192.5 Z"/></g>
<g><path style="opacity:0.999" fill="#db4502" d="M 395.5,195.5 C 393.41,208.386 391.743,221.386 390.5,234.5C 389.573,237.574 388.573,240.74 387.5,244C 387.388,245.662 388.054,246.829 389.5,247.5C 390.466,245.604 390.799,243.604 390.5,241.5C 391.5,241.5 392.5,241.5 393.5,241.5C 393.5,239.833 393.5,238.167 393.5,236.5C 396.48,230.067 398.98,223.401 401,216.5C 404.956,211.776 407.456,206.443 408.5,200.5C 409.675,200.719 410.675,200.386 411.5,199.5C 412.713,196.79 414.046,194.124 415.5,191.5C 418.086,190.52 420.753,190.187 423.5,190.5C 424.26,191.893 424.926,193.393 425.5,195C 424.646,199.065 423.313,202.898 421.5,206.5C 415.487,220.322 410.153,234.655 405.5,249.5C 405.577,251.299 406.077,252.966 407,254.5C 410.047,251.681 412.213,248.348 413.5,244.5C 413.491,242.692 413.991,241.025 415,239.5C 418.605,235.924 421.605,231.924 424,227.5C 429.05,220.701 434.55,214.368 440.5,208.5C 440.833,210 441.167,211.5 441.5,213C 439.934,221.739 439.1,230.572 439,239.5C 430.694,247.628 424.194,256.962 419.5,267.5C 418.73,269.686 417.73,271.852 416.5,274C 416.833,274.5 417.167,275 417.5,275.5C 420.289,274.21 422.956,272.71 425.5,271C 433.411,268.118 440.911,264.284 448,259.5C 450.714,257.653 453.547,257.32 456.5,258.5C 449.567,267.394 442.9,276.394 436.5,285.5C 432.548,288.785 428.881,292.452 425.5,296.5C 420.502,302.443 415.502,308.443 410.5,314.5C 402.788,320.885 395.454,327.552 388.5,334.5C 386.118,336.046 383.451,336.713 380.5,336.5C 380.5,337.5 380.5,338.5 380.5,339.5C 375.156,339.666 369.823,339.499 364.5,339C 360.983,337.076 357.316,335.409 353.5,334C 347.016,328.853 340.516,323.686 334,318.5C 331.026,312.882 327.859,307.549 324.5,302.5C 324.5,301.167 324.5,299.833 324.5,298.5C 323.5,298.5 322.5,298.5 321.5,298.5C 321.795,296.265 321.461,294.265 320.5,292.5C 317.919,287.683 315.752,282.683 314,277.5C 313.327,271.396 312.494,265.396 311.5,259.5C 310.5,259.5 309.5,259.5 308.5,259.5C 308.169,252.137 308.503,244.803 309.5,237.5C 310.183,237.863 310.85,238.196 311.5,238.5C 314.856,240.797 318.023,243.464 321,246.5C 323.295,250.011 325.128,253.677 326.5,257.5C 327.5,257.5 328.5,257.5 329.5,257.5C 330.443,261.387 331.943,265.053 334,268.5C 334.333,270.833 334.667,273.167 335,275.5C 336.126,276.944 337.626,277.61 339.5,277.5C 341.777,276.522 344.11,275.855 346.5,275.5C 347.978,275.762 349.311,275.429 350.5,274.5C 353.785,271.305 356.952,267.972 360,264.5C 360.275,261.588 361.109,258.921 362.5,256.5C 363.316,253.326 364.649,250.326 366.5,247.5C 368.407,241.636 369.407,235.636 369.5,229.5C 370.5,229.5 371.5,229.5 372.5,229.5C 374.376,220.889 376.209,212.222 378,203.5C 379.742,197.688 382.242,192.355 385.5,187.5C 389.434,186.64 393.434,186.307 397.5,186.5C 396.833,189.5 396.167,192.5 395.5,195.5 Z"/></g>
<g><path style="opacity:0.918" fill="#adadad" d="M 219.5,162.5 C 220.117,162.611 220.617,162.944 221,163.5C 221.167,166.667 221.333,169.833 221.5,173C 221.62,178.37 220.953,183.537 219.5,188.5C 215.154,188.666 210.821,188.499 206.5,188C 204.68,187.8 203.347,186.966 202.5,185.5C 207.61,187.18 212.943,187.847 218.5,187.5C 220.619,179.255 220.952,170.922 219.5,162.5 Z"/></g>
<g><path style="opacity:0.918" fill="#a2a2a2" d="M 471.5,180.5 C 471.552,182.903 471.219,185.236 470.5,187.5C 470.5,188.167 470.167,188.5 469.5,188.5C 464.156,188.666 458.823,188.499 453.5,188C 452.619,187.292 451.953,186.458 451.5,185.5C 457.252,187.355 463.252,188.022 469.5,187.5C 469.41,184.848 470.076,182.515 471.5,180.5 Z"/></g>
<g><path style="opacity:0.816" fill="#a69b55" d="M 360.5,172.5 C 373.344,172.171 386.011,172.505 398.5,173.5C 385.496,173.333 372.496,173.5 359.5,174C 351.446,177.263 343.113,179.43 334.5,180.5C 334.5,181.5 334.5,182.5 334.5,183.5C 324.471,185.648 314.471,187.982 304.5,190.5C 299.63,188.824 294.63,187.49 289.5,186.5C 288.555,182.661 287.221,178.995 285.5,175.5C 285.833,175.5 286.167,175.5 286.5,175.5C 288.164,178.662 290.164,181.662 292.5,184.5C 296.311,186.289 300.311,187.622 304.5,188.5C 310.934,187.739 317.268,186.572 323.5,185C 329.204,182.967 334.704,180.467 340,177.5C 346.88,175.665 353.713,173.999 360.5,172.5 Z"/></g>
<g><path style="opacity:0.796" fill="#f2b551" d="M 398.5,192.5 C 397.253,199.205 395.753,205.872 394,212.5C 394.18,220.272 393.013,227.605 390.5,234.5C 391.743,221.386 393.41,208.386 395.5,195.5C 396.272,194.306 397.272,193.306 398.5,192.5 Z"/></g>
<g><path style="opacity:0.919" fill="#c98b5e" d="M 42.5,187.5 C 43.4959,187.414 44.3292,187.748 45,188.5C 46.2863,190.183 47.453,191.849 48.5,193.5C 48.6349,199.181 48.9682,204.848 49.5,210.5C 48.5,210.5 47.5,210.5 46.5,210.5C 47.5812,202.252 46.2479,194.585 42.5,187.5 Z"/></g>
<g><path style="opacity:0.851" fill="#914f87" d="M 239.5,182.5 C 240.117,182.611 240.617,182.944 241,183.5C 241.667,193.167 241.667,202.833 241,212.5C 240.019,217.629 238.186,222.296 235.5,226.5C 237.285,219.755 238.785,212.755 240,205.5C 240.767,197.785 240.6,190.118 239.5,182.5 Z"/></g>
<g><path style="opacity:0.996" fill="#eead53" d="M 423.5,190.5 C 425.288,190.215 426.955,190.548 428.5,191.5C 436.476,197.953 445.142,203.453 454.5,208C 458.707,212.032 460.874,216.866 461,222.5C 457.125,229.034 451.625,233.867 444.5,237C 442.826,238.506 441.826,240.339 441.5,242.5C 437.175,243.36 434.508,246.026 433.5,250.5C 427.472,253.707 424.472,258.707 424.5,265.5C 422.678,265.831 421.011,266.498 419.5,267.5C 424.194,256.962 430.694,247.628 439,239.5C 439.1,230.572 439.934,221.739 441.5,213C 441.167,211.5 440.833,210 440.5,208.5C 434.55,214.368 429.05,220.701 424,227.5C 421.605,231.924 418.605,235.924 415,239.5C 413.991,241.025 413.491,242.692 413.5,244.5C 411.743,245.292 410.409,246.625 409.5,248.5C 408.369,246.926 408.202,245.259 409,243.5C 410.827,238.279 413.161,233.279 416,228.5C 416.266,223.931 417.266,219.597 419,215.5C 421.251,212.983 422.084,209.983 421.5,206.5C 423.313,202.898 424.646,199.065 425.5,195C 424.926,193.393 424.26,191.893 423.5,190.5 Z"/></g>
<g><path style="opacity:0.933" fill="#e1651c" d="M 421.5,206.5 C 422.084,209.983 421.251,212.983 419,215.5C 417.266,219.597 416.266,223.931 416,228.5C 413.161,233.279 410.827,238.279 409,243.5C 408.202,245.259 408.369,246.926 409.5,248.5C 410.409,246.625 411.743,245.292 413.5,244.5C 412.213,248.348 410.047,251.681 407,254.5C 406.077,252.966 405.577,251.299 405.5,249.5C 410.153,234.655 415.487,220.322 421.5,206.5 Z"/></g>
<g><path style="opacity:0.99" fill="#d99660" d="M 49.5,211.5 C 49.8333,211.5 50.1667,211.5 50.5,211.5C 51.0197,216.534 51.853,221.534 53,226.5C 54.911,230.067 56.5777,233.734 58,237.5C 61.4342,242.051 64.6009,246.718 67.5,251.5C 65.4168,249.955 63.4168,248.122 61.5,246C 60.552,245.517 59.552,245.351 58.5,245.5C 58.3067,242.692 57.64,240.025 56.5,237.5C 55.5,237.5 54.5,237.5 53.5,237.5C 52.0238,228.857 50.6904,220.19 49.5,211.5 Z"/></g>
<g><path style="opacity:0.999" fill="#db4100" d="M 246.5,370.5 C 244.539,374.749 242.873,379.082 241.5,383.5C 240.5,383.5 239.5,383.5 238.5,383.5C 237.449,382.778 236.782,381.778 236.5,380.5C 234.231,379.024 231.898,377.524 229.5,376C 228.809,374.933 228.309,373.766 228,372.5C 227.5,335.835 227.333,299.168 227.5,262.5C 226.5,262.5 225.5,262.5 224.5,262.5C 224.334,258.154 224.501,253.821 225,249.5C 227.137,247.679 227.97,245.346 227.5,242.5C 229.143,242.52 230.476,241.853 231.5,240.5C 232.167,238.5 232.833,236.5 233.5,234.5C 234.328,233.585 235.328,232.919 236.5,232.5C 240.246,234.253 244.246,234.92 248.5,234.5C 247.105,250.774 246.439,267.107 246.5,283.5C 246.476,300.985 247.142,318.318 248.5,335.5C 248.681,347.278 248.014,358.945 246.5,370.5 Z"/></g>
<g><path style="opacity:0.999" fill="#db4100" d="M 268.5,235.5 C 273.833,235.5 279.167,235.5 284.5,235.5C 284.998,238.487 285.498,241.487 286,244.5C 286.5,270.498 286.667,296.498 286.5,322.5C 280.5,322.5 274.5,322.5 268.5,322.5C 268.92,312.585 268.253,302.751 266.5,293C 267.311,286.19 267.644,279.356 267.5,272.5C 268.138,260.177 268.472,247.844 268.5,235.5 Z"/></g>
<g><path style="opacity:0.614" fill="#ec933a" d="M 390.5,234.5 C 390.201,236.604 390.534,238.604 391.5,240.5C 392.172,239.051 392.839,237.718 393.5,236.5C 393.5,238.167 393.5,239.833 393.5,241.5C 392.5,241.5 391.5,241.5 390.5,241.5C 390.799,243.604 390.466,245.604 389.5,247.5C 388.054,246.829 387.388,245.662 387.5,244C 388.573,240.74 389.573,237.574 390.5,234.5 Z"/></g>
<g><path style="opacity:0.955" fill="#e57525" d="M 286.5,234.5 C 280.31,234.177 274.31,234.51 268.5,235.5C 268.472,247.844 268.138,260.177 267.5,272.5C 266.833,274.167 266.167,275.833 265.5,277.5C 265.5,275.5 265.5,273.5 265.5,271.5C 265.767,259.16 266.267,246.826 267,234.5C 273.599,233.174 280.099,233.174 286.5,234.5 Z"/></g>
<g><path style="opacity:0.999" fill="#fecd73" d="M 81.5,287.5 C 82.4816,290.962 82.815,294.629 82.5,298.5C 85.36,308.702 87.6933,319.036 89.5,329.5C 90.5,329.5 91.5,329.5 92.5,329.5C 93.5054,332.721 94.3387,336.054 95,339.5C 98.3802,340.736 100.214,343.07 100.5,346.5C 101.959,346.433 103.292,346.766 104.5,347.5C 112.777,358.778 122.443,368.778 133.5,377.5C 134.386,378.325 134.719,379.325 134.5,380.5C 141.654,383.767 148.32,387.934 154.5,393C 163.83,396.566 172.997,400.732 182,405.5C 190.43,407.363 198.596,409.696 206.5,412.5C 216.407,414.449 226.407,415.783 236.5,416.5C 236.611,417.117 236.944,417.617 237.5,418C 241.667,418.167 245.833,418.333 250,418.5C 263.797,417.153 277.63,416.486 291.5,416.5C 292.289,416.217 292.956,415.717 293.5,415C 300.638,414.658 307.638,413.492 314.5,411.5C 314.977,410.522 315.643,409.689 316.5,409C 324.133,407.148 331.8,405.481 339.5,404C 341.089,402.255 343.089,401.088 345.5,400.5C 345.291,399.914 344.957,399.414 344.5,399C 347.65,397.865 350.817,396.699 354,395.5C 355.31,394.87 356.144,393.87 356.5,392.5C 361.704,388.506 367.371,385.006 373.5,382C 377.591,376.913 382.591,372.913 388.5,370C 391.363,365.972 394.696,362.472 398.5,359.5C 398.335,362.518 398.502,365.518 399,368.5C 400.569,369.122 402.236,369.456 404,369.5C 416.694,366.959 428.86,363.125 440.5,358C 442.473,357.505 444.473,357.338 446.5,357.5C 446.461,354.911 447.461,352.911 449.5,351.5C 448.774,354.179 447.941,356.846 447,359.5C 442.725,361.976 440.059,365.643 439,370.5C 434.468,373.889 431.135,378.223 429,383.5C 427.989,384.337 426.822,384.67 425.5,384.5C 422.806,387.876 420.473,391.543 418.5,395.5C 417.325,395.281 416.325,395.614 415.5,396.5C 410.833,402.5 405.5,407.833 399.5,412.5C 398.614,413.325 398.281,414.325 398.5,415.5C 397.448,415.351 396.448,415.517 395.5,416C 392.209,419.325 388.876,422.658 385.5,426C 384.167,426.333 382.833,426.667 381.5,427C 369.88,435.819 357.546,443.652 344.5,450.5C 327.077,456.709 309.744,463.209 292.5,470C 285.726,470.078 279.059,470.745 272.5,472C 262.833,472.667 253.167,472.667 243.5,472C 210.67,468.372 179.67,459.039 150.5,444C 146.353,440.139 141.686,437.139 136.5,435C 135.207,434.51 133.873,434.343 132.5,434.5C 132.5,433.5 132.5,432.5 132.5,431.5C 131.167,431.5 129.833,431.5 128.5,431.5C 127.909,428.386 126.242,425.886 123.5,424C 117.995,420.958 112.995,417.458 108.5,413.5C 108.719,412.325 108.386,411.325 107.5,410.5C 105.609,408.984 103.609,407.65 101.5,406.5C 97.7234,401.935 93.7234,397.602 89.5,393.5C 86.744,390.22 84.744,386.553 83.5,382.5C 79.963,381.614 78.2963,379.281 78.5,375.5C 77.5,375.5 76.5,375.5 75.5,375.5C 67.5646,361.02 60.0646,346.353 53,331.5C 49.6481,320.33 45.9814,309.33 42,298.5C 39.6684,279.572 39.0018,260.572 40,241.5C 41.5069,240.465 43.0069,240.632 44.5,242C 45.1268,244.343 46.1268,246.51 47.5,248.5C 51.0368,252.643 54.7034,256.643 58.5,260.5C 62.0428,261.638 64.3761,263.971 65.5,267.5C 69.9322,271.462 74.7656,274.795 80,277.5C 80.1787,281.025 80.6787,284.359 81.5,287.5 Z"/></g>
<g><path style="opacity:0.878" fill="#df601d" d="M 234.5,229.5 C 239.003,231.88 244.003,233.213 249.5,233.5C 249.5,238.167 249.5,242.833 249.5,247.5C 249.5,249.5 249.5,251.5 249.5,253.5C 248.553,266.16 247.887,278.994 247.5,292C 247.281,297.432 247.948,302.599 249.5,307.5C 249.5,309.167 249.5,310.833 249.5,312.5C 249.667,328.837 249.5,345.17 249,361.5C 247.926,364.5 247.093,367.5 246.5,370.5C 248.014,358.945 248.681,347.278 248.5,335.5C 247.142,318.318 246.476,300.985 246.5,283.5C 246.439,267.107 247.105,250.774 248.5,234.5C 244.246,234.92 240.246,234.253 236.5,232.5C 235.328,232.919 234.328,233.585 233.5,234.5C 232.833,236.5 232.167,238.5 231.5,240.5C 230.476,241.853 229.143,242.52 227.5,242.5C 227.97,245.346 227.137,247.679 225,249.5C 224.501,253.821 224.334,258.154 224.5,262.5C 223.806,259.579 222.973,256.579 222,253.5C 221.329,252.748 220.496,252.414 219.5,252.5C 224.024,244.546 229.024,236.88 234.5,229.5 Z"/></g>
<g><path style="opacity:0.969" fill="#f4c059" d="M 311.5,238.5 C 310.85,238.196 310.183,237.863 309.5,237.5C 308.503,244.803 308.169,252.137 308.5,259.5C 309.5,259.5 310.5,259.5 311.5,259.5C 312.494,265.396 313.327,271.396 314,277.5C 315.752,282.683 317.919,287.683 320.5,292.5C 319.624,292.631 318.957,292.298 318.5,291.5C 313.908,282.781 311.075,273.447 310,263.5C 309.581,262.328 308.915,261.328 308,260.5C 307.789,252.298 307.289,244.131 306.5,236C 306.85,234.743 307.517,234.409 308.5,235C 310.063,235.759 311.063,236.926 311.5,238.5 Z"/></g>
<g><path style="opacity:0.922" fill="#e47021" d="M 362.5,256.5 C 361.109,258.921 360.275,261.588 360,264.5C 356.952,267.972 353.785,271.305 350.5,274.5C 349.311,275.429 347.978,275.762 346.5,275.5C 352.617,269.726 357.95,263.393 362.5,256.5 Z"/></g>
<g><path style="opacity:0.999" fill="#fecd73" d="M 249.5,247.5 C 249.833,247.5 250.167,247.5 250.5,247.5C 250.333,259.505 250.5,271.505 251,283.5C 255.666,287.669 259.832,292.335 263.5,297.5C 264.167,288.676 264.833,280.009 265.5,271.5C 265.5,273.5 265.5,275.5 265.5,277.5C 265.323,292.856 265.823,308.189 267,323.5C 274.166,324.817 281.333,324.817 288.5,323.5C 297.991,324.658 307.658,324.825 317.5,324C 318.872,323.598 320.205,323.098 321.5,322.5C 323.043,319.61 325.376,317.943 328.5,317.5C 327.308,312.522 325.974,307.522 324.5,302.5C 327.859,307.549 331.026,312.882 334,318.5C 340.516,323.686 347.016,328.853 353.5,334C 357.316,335.409 360.983,337.076 364.5,339C 369.823,339.499 375.156,339.666 380.5,339.5C 380.5,338.5 380.5,337.5 380.5,336.5C 383.451,336.713 386.118,336.046 388.5,334.5C 391.167,333.833 393.833,333.167 396.5,332.5C 395.092,335.51 393.759,338.51 392.5,341.5C 389.644,344.572 387.311,347.905 385.5,351.5C 384.448,351.351 383.448,351.517 382.5,352C 376.909,357.466 370.909,362.466 364.5,367C 362.235,368.118 359.901,368.951 357.5,369.5C 357.5,370.5 357.5,371.5 357.5,372.5C 344.422,379.333 330.755,385.167 316.5,390C 305.901,391.577 295.568,393.41 285.5,395.5C 269.594,397.531 253.594,398.031 237.5,397C 236.099,396.59 234.766,396.09 233.5,395.5C 228.349,394.673 223.016,394.173 217.5,394C 210.695,391.58 203.695,389.914 196.5,389C 192.213,386.406 187.546,384.74 182.5,384C 179.785,383.125 178.452,381.292 178.5,378.5C 174.37,378.466 170.37,377.799 166.5,376.5C 166.5,375.5 166.5,374.5 166.5,373.5C 162.616,373.576 158.95,372.91 155.5,371.5C 146.838,367.33 139.171,361.83 132.5,355C 131.552,354.517 130.552,354.351 129.5,354.5C 124.206,347.114 118.206,340.114 111.5,333.5C 108.865,328.545 105.865,323.878 102.5,319.5C 102.178,315.236 100.511,311.57 97.5,308.5C 96.5258,306.257 96.1924,303.924 96.5,301.5C 95.5,301.5 94.5,301.5 93.5,301.5C 93.5,301.167 93.5,300.833 93.5,300.5C 91.8926,296.059 91.2259,291.392 91.5,286.5C 91.5,285.167 91.5,283.833 91.5,282.5C 122.88,294.429 155.213,297.262 188.5,291C 194.339,287.915 200.339,285.081 206.5,282.5C 208.343,279.578 211.01,278.245 214.5,278.5C 216.996,274.857 219.663,271.19 222.5,267.5C 223.329,272.802 223.829,278.136 224,283.5C 224.383,284.056 224.883,284.389 225.5,284.5C 225.169,310.339 225.502,336.005 226.5,361.5C 226.334,366.179 226.501,370.845 227,375.5C 229.635,378.33 232.801,379.996 236.5,380.5C 236.782,381.778 237.449,382.778 238.5,383.5C 239.077,385.652 240.244,385.985 242,384.5C 242.005,381.771 243.171,379.771 245.5,378.5C 246.542,375.577 247.875,372.91 249.5,370.5C 250.828,351.004 250.828,331.671 249.5,312.5C 249.5,310.833 249.5,309.167 249.5,307.5C 249.5,289.5 249.5,271.5 249.5,253.5C 249.5,251.5 249.5,249.5 249.5,247.5 Z"/></g>
<g><path style="opacity:0.914" fill="#c98668" d="M 92.5,270.5 C 98.1546,272.602 103.488,275.269 108.5,278.5C 106.801,278.66 105.134,278.494 103.5,278C 100.209,275.523 96.5419,274.023 92.5,273.5C 92.5,272.5 92.5,271.5 92.5,270.5 Z"/></g>
<g><path style="opacity:0.875" fill="#be7b6f" d="M 205.5,265.5 C 204.206,268.41 202.206,270.743 199.5,272.5C 195.965,272.969 192.965,274.469 190.5,277C 187.578,277.417 184.911,278.417 182.5,280C 180.19,280.497 177.857,280.663 175.5,280.5C 186.476,277.679 196.476,272.679 205.5,265.5 Z"/></g>
<g><path style="opacity:0.851" fill="#a44e2b" d="M 91.5,286.5 C 91.2259,291.392 91.8926,296.059 93.5,300.5C 92.7168,298.924 91.5501,297.591 90,296.5C 89.769,292.416 89.1024,288.416 88,284.5C 87.3005,282.968 86.1338,281.968 84.5,281.5C 83.5046,287.128 83.1712,292.794 83.5,298.5C 83.1667,298.5 82.8333,298.5 82.5,298.5C 82.815,294.629 82.4816,290.962 81.5,287.5C 81.1826,284.428 81.5159,281.428 82.5,278.5C 84.5101,279.502 86.5101,280.502 88.5,281.5C 89.2745,283.396 90.2745,285.063 91.5,286.5 Z"/></g>
<g><path style="opacity:0.925" fill="#af6c77" d="M 175.5,280.5 C 175.423,281.75 174.756,282.583 173.5,283C 169.848,283.499 166.182,283.665 162.5,283.5C 166.632,282.137 170.965,281.137 175.5,280.5 Z"/></g>
<g><path style="opacity:0.998" fill="#7f1c10" d="M 93.5,300.5 C 93.5,300.833 93.5,301.167 93.5,301.5C 94.8165,303.953 95.6498,306.62 96,309.5C 97.5433,313.408 99.71,316.742 102.5,319.5C 105.865,323.878 108.865,328.545 111.5,333.5C 118.206,340.114 124.206,347.114 129.5,354.5C 130.552,354.351 131.552,354.517 132.5,355C 139.171,361.83 146.838,367.33 155.5,371.5C 165.232,378.269 175.899,382.935 187.5,385.5C 187.5,386.5 187.5,387.5 187.5,388.5C 196.739,389.714 205.739,391.881 214.5,395C 218.152,395.499 221.818,395.665 225.5,395.5C 228.258,396.761 231.258,397.594 234.5,398C 249.167,398.667 263.833,398.667 278.5,398C 281.104,397.61 283.438,396.776 285.5,395.5C 295.568,393.41 305.901,391.577 316.5,390C 330.755,385.167 344.422,379.333 357.5,372.5C 357.5,371.5 357.5,370.5 357.5,369.5C 359.901,368.951 362.235,368.118 364.5,367C 370.909,362.466 376.909,357.466 382.5,352C 383.448,351.517 384.448,351.351 385.5,351.5C 387.311,347.905 389.644,344.572 392.5,341.5C 400.248,333.671 406.248,324.671 410.5,314.5C 415.502,308.443 420.502,302.443 425.5,296.5C 424.143,302.044 423.31,307.711 423,313.5C 419.209,324.359 414.375,334.692 408.5,344.5C 404.922,349.32 401.588,354.32 398.5,359.5C 394.696,362.472 391.363,365.972 388.5,370C 382.591,372.913 377.591,376.913 373.5,382C 367.371,385.006 361.704,388.506 356.5,392.5C 355.127,392.343 353.793,392.51 352.5,393C 344.293,397.842 335.626,401.842 326.5,405C 315.263,408.112 303.93,410.945 292.5,413.5C 274.038,415.958 255.371,416.958 236.5,416.5C 226.407,415.783 216.407,414.449 206.5,412.5C 198.596,409.696 190.43,407.363 182,405.5C 172.997,400.732 163.83,396.566 154.5,393C 148.32,387.934 141.654,383.767 134.5,380.5C 134.719,379.325 134.386,378.325 133.5,377.5C 122.443,368.778 112.777,358.778 104.5,347.5C 102.822,343.365 100.322,339.698 97,336.5C 95.3596,332.555 93.3596,328.888 91,325.5C 88.7943,316.388 86.2943,307.388 83.5,298.5C 83.1712,292.794 83.5046,287.128 84.5,281.5C 86.1338,281.968 87.3005,282.968 88,284.5C 89.1024,288.416 89.769,292.416 90,296.5C 91.5501,297.591 92.7168,298.924 93.5,300.5 Z"/></g>
<g><path style="opacity:0.861" fill="#af6d77" d="M 131.5,283.5 C 141.829,284.755 152.162,284.755 162.5,283.5C 158.217,284.827 153.551,285.493 148.5,285.5C 143.833,285.333 139.167,285.167 134.5,285C 133.263,284.768 132.263,284.268 131.5,283.5 Z"/></g>
<g><path style="opacity:0.867" fill="#f09746" d="M 224.5,267.5 C 225.314,269.631 225.814,271.964 226,274.5C 226.5,303.498 226.667,332.498 226.5,361.5C 225.502,336.005 225.169,310.339 225.5,284.5C 225.093,278.839 224.76,273.172 224.5,267.5 Z"/></g>
<g><path style="opacity:0.82" fill="#ef9743" d="M 249.5,253.5 C 249.5,271.5 249.5,289.5 249.5,307.5C 247.948,302.599 247.281,297.432 247.5,292C 247.887,278.994 248.553,266.16 249.5,253.5 Z"/></g>
<g><path style="opacity:0.95" fill="#e2611b" d="M 224.5,262.5 C 225.5,262.5 226.5,262.5 227.5,262.5C 227.333,299.168 227.5,335.835 228,372.5C 228.309,373.766 228.809,374.933 229.5,376C 231.898,377.524 234.231,379.024 236.5,380.5C 232.801,379.996 229.635,378.33 227,375.5C 226.501,370.845 226.334,366.179 226.5,361.5C 226.667,332.498 226.5,303.498 226,274.5C 225.814,271.964 225.314,269.631 224.5,267.5C 224.5,265.833 224.5,264.167 224.5,262.5 Z"/></g>
<g><path style="opacity:0.89" fill="#ac5b32" d="M 93.5,301.5 C 94.5,301.5 95.5,301.5 96.5,301.5C 96.1924,303.924 96.5258,306.257 97.5,308.5C 100.511,311.57 102.178,315.236 102.5,319.5C 99.71,316.742 97.5433,313.408 96,309.5C 95.6498,306.62 94.8165,303.953 93.5,301.5 Z"/></g>
<g><path style="opacity:0.974" fill="#e3681d" d="M 268.5,235.5 C 274.31,234.51 280.31,234.177 286.5,234.5C 287.222,234.918 287.722,235.584 288,236.5C 288.5,265.498 288.667,294.498 288.5,323.5C 281.333,324.817 274.166,324.817 267,323.5C 265.823,308.189 265.323,292.856 265.5,277.5C 266.167,275.833 266.833,274.167 267.5,272.5C 267.644,279.356 267.311,286.19 266.5,293C 268.253,302.751 268.92,312.585 268.5,322.5C 274.5,322.5 280.5,322.5 286.5,322.5C 286.667,296.498 286.5,270.498 286,244.5C 285.498,241.487 284.998,238.487 284.5,235.5C 279.167,235.5 273.833,235.5 268.5,235.5 Z"/></g>
<g><path style="opacity:0.99" fill="#f0b15f" d="M 410.5,314.5 C 406.248,324.671 400.248,333.671 392.5,341.5C 393.759,338.51 395.092,335.51 396.5,332.5C 393.833,333.167 391.167,333.833 388.5,334.5C 395.454,327.552 402.788,320.885 410.5,314.5 Z"/></g>
<g><path style="opacity:0.973" fill="#e2b85c" d="M 436.5,285.5 C 433.942,289.404 430.942,293.071 427.5,296.5C 425.361,305.686 423.694,315.02 422.5,324.5C 421.5,324.5 420.5,324.5 419.5,324.5C 419.663,326.857 419.497,329.19 419,331.5C 417.488,332.257 416.154,333.257 415,334.5C 413.938,337.341 412.604,340.008 411,342.5C 410.292,343.381 409.458,344.047 408.5,344.5C 414.375,334.692 419.209,324.359 423,313.5C 423.31,307.711 424.143,302.044 425.5,296.5C 428.881,292.452 432.548,288.785 436.5,285.5 Z"/></g>
<g><path style="opacity:0.99" fill="#e6ac60" d="M 82.5,298.5 C 82.8333,298.5 83.1667,298.5 83.5,298.5C 86.2943,307.388 88.7943,316.388 91,325.5C 93.3596,328.888 95.3596,332.555 97,336.5C 100.322,339.698 102.822,343.365 104.5,347.5C 103.292,346.766 101.959,346.433 100.5,346.5C 100.214,343.07 98.3802,340.736 95,339.5C 94.3387,336.054 93.5054,332.721 92.5,329.5C 91.5,329.5 90.5,329.5 89.5,329.5C 87.6933,319.036 85.36,308.702 82.5,298.5 Z"/></g>
<g><path style="opacity:0.962" fill="#f7b15b" d="M 249.5,312.5 C 250.828,331.671 250.828,351.004 249.5,370.5C 247.875,372.91 246.542,375.577 245.5,378.5C 243.171,379.771 242.005,381.771 242,384.5C 240.244,385.985 239.077,385.652 238.5,383.5C 239.5,383.5 240.5,383.5 241.5,383.5C 242.873,379.082 244.539,374.749 246.5,370.5C 247.093,367.5 247.926,364.5 249,361.5C 249.5,345.17 249.667,328.837 249.5,312.5 Z"/></g>
<g><path style="opacity:0.965" fill="#e0a35b" d="M 155.5,371.5 C 158.95,372.91 162.616,373.576 166.5,373.5C 166.5,374.5 166.5,375.5 166.5,376.5C 170.37,377.799 174.37,378.466 178.5,378.5C 178.452,381.292 179.785,383.125 182.5,384C 187.546,384.74 192.213,386.406 196.5,389C 203.695,389.914 210.695,391.58 217.5,394C 223.016,394.173 228.349,394.673 233.5,395.5C 230.833,395.5 228.167,395.5 225.5,395.5C 221.818,395.665 218.152,395.499 214.5,395C 205.739,391.881 196.739,389.714 187.5,388.5C 187.5,387.5 187.5,386.5 187.5,385.5C 175.899,382.935 165.232,378.269 155.5,371.5 Z"/></g>
<g><path style="opacity:0.916" fill="#c07642" d="M 225.5,395.5 C 228.167,395.5 230.833,395.5 233.5,395.5C 234.766,396.09 236.099,396.59 237.5,397C 253.594,398.031 269.594,397.531 285.5,395.5C 283.438,396.776 281.104,397.61 278.5,398C 263.833,398.667 249.167,398.667 234.5,398C 231.258,397.594 228.258,396.761 225.5,395.5 Z"/></g>
<g><path style="opacity:0.959" fill="#e2a65d" d="M 356.5,392.5 C 356.144,393.87 355.31,394.87 354,395.5C 350.817,396.699 347.65,397.865 344.5,399C 344.957,399.414 345.291,399.914 345.5,400.5C 343.089,401.088 341.089,402.255 339.5,404C 331.8,405.481 324.133,407.148 316.5,409C 315.643,409.689 314.977,410.522 314.5,411.5C 307.638,413.492 300.638,414.658 293.5,415C 292.956,415.717 292.289,416.217 291.5,416.5C 291.557,415.391 291.89,414.391 292.5,413.5C 303.93,410.945 315.263,408.112 326.5,405C 335.626,401.842 344.293,397.842 352.5,393C 353.793,392.51 355.127,392.343 356.5,392.5 Z"/></g>
<g><path style="opacity:0.927" fill="#c47c45" d="M 292.5,413.5 C 291.89,414.391 291.557,415.391 291.5,416.5C 277.63,416.486 263.797,417.153 250,418.5C 245.833,418.333 241.667,418.167 237.5,418C 236.944,417.617 236.611,417.117 236.5,416.5C 255.371,416.958 274.038,415.958 292.5,413.5 Z"/></g>
</svg>
